G04*
G04 #@! TF.GenerationSoftware,Altium Limited,Altium Designer,24.8.2 (39)*
G04*
G04 Layer_Color=16711935*
%FSLAX44Y44*%
%MOMM*%
G71*
G04*
G04 #@! TF.SameCoordinates,51F5D0A7-D834-435B-83A4-D3E02903F5C0*
G04*
G04*
G04 #@! TF.FilePolarity,Negative*
G04*
G01*
G75*
%ADD18C,0.7000*%
%ADD56C,0.6588*%
%ADD65R,4.2500X4.3000*%
%ADD66C,7.1000*%
D18*
X76531Y-27107D02*
D03*
X70031D02*
D03*
X86100Y37815D02*
D03*
X13714Y-28937D02*
D03*
X-105214Y-25634D02*
D03*
X27290Y1777D02*
D03*
X8411Y-34330D02*
D03*
X3107Y-28826D02*
D03*
X83031Y-27107D02*
D03*
X-74730Y-35546D02*
D03*
X24527Y-17594D02*
D03*
X-61867Y73812D02*
D03*
X22241Y6786D02*
D03*
X-111714Y-25634D02*
D03*
X19130Y-23339D02*
D03*
X-12947Y-58270D02*
D03*
X-111714Y-32134D02*
D03*
X29978Y-11853D02*
D03*
X32741Y-3670D02*
D03*
X-118214Y-25634D02*
D03*
X-80782Y-9101D02*
D03*
X-31412Y47813D02*
D03*
X-5580Y53905D02*
D03*
X11946Y17286D02*
D03*
X-62637Y47605D02*
D03*
X16955Y12089D02*
D03*
X72582Y37362D02*
D03*
D56*
X53445Y52163D02*
D03*
X93126Y94000D02*
D03*
Y84000D02*
D03*
Y74000D02*
D03*
Y64000D02*
D03*
Y34000D02*
D03*
Y-26000D02*
D03*
Y-36000D02*
D03*
Y-46000D02*
D03*
Y-56000D02*
D03*
Y-66000D02*
D03*
Y-76000D02*
D03*
Y-86000D02*
D03*
X-150000Y-95000D02*
D03*
X-140000D02*
D03*
X-130000D02*
D03*
X-120000D02*
D03*
X-110000D02*
D03*
X-100000D02*
D03*
X-90000D02*
D03*
X-80000D02*
D03*
X-70000D02*
D03*
X-60000D02*
D03*
X-50000D02*
D03*
X-40000D02*
D03*
X-30000D02*
D03*
X-20000D02*
D03*
X-10000D02*
D03*
X0D02*
D03*
X10000D02*
D03*
X20000D02*
D03*
X30000D02*
D03*
X40000D02*
D03*
X50000D02*
D03*
X60000D02*
D03*
X70000D02*
D03*
X80000D02*
D03*
X-150000Y-85000D02*
D03*
Y-75000D02*
D03*
Y-65000D02*
D03*
Y-55000D02*
D03*
Y-45000D02*
D03*
Y-35000D02*
D03*
Y-25000D02*
D03*
Y-15000D02*
D03*
Y-5000D02*
D03*
Y5000D02*
D03*
Y15000D02*
D03*
Y25000D02*
D03*
Y35000D02*
D03*
Y45000D02*
D03*
Y55000D02*
D03*
Y65000D02*
D03*
Y75000D02*
D03*
Y85000D02*
D03*
Y95000D02*
D03*
X-140000D02*
D03*
X-130000D02*
D03*
X-120000D02*
D03*
X-110000D02*
D03*
X-100000D02*
D03*
X-90000D02*
D03*
X-80000D02*
D03*
X-70000D02*
D03*
X-60000D02*
D03*
X-50000D02*
D03*
X-40000D02*
D03*
X-30000D02*
D03*
X-20000D02*
D03*
X-10000D02*
D03*
X0D02*
D03*
X10000D02*
D03*
X20000D02*
D03*
X30000D02*
D03*
X40000D02*
D03*
X50000D02*
D03*
X60000D02*
D03*
X70000D02*
D03*
X80000D02*
D03*
X-53778Y-11688D02*
D03*
X72882Y55377D02*
D03*
X-33629Y-5240D02*
D03*
X36371Y21478D02*
D03*
X33791Y-66692D02*
D03*
X-65617Y5703D02*
D03*
X11599Y56916D02*
D03*
X36248Y-49777D02*
D03*
X61558Y36344D02*
D03*
X34232Y59652D02*
D03*
X-3960Y43818D02*
D03*
X22300Y38743D02*
D03*
X67977Y-38354D02*
D03*
X20741Y-65927D02*
D03*
X65747Y55036D02*
D03*
X-54987Y26184D02*
D03*
X51761Y33152D02*
D03*
X-48172Y31537D02*
D03*
X91007Y57384D02*
D03*
D65*
X-124000Y0D02*
D03*
X76000D02*
D03*
D66*
X-24000D02*
D03*
M02*
