G04*
G04 #@! TF.GenerationSoftware,Altium Limited,Altium Designer,24.8.2 (39)*
G04*
G04 Layer_Physical_Order=1*
G04 Layer_Color=255*
%FSLAX44Y44*%
%MOMM*%
G71*
G04*
G04 #@! TF.SameCoordinates,51F5D0A7-D834-435B-83A4-D3E02903F5C0*
G04*
G04*
G04 #@! TF.FilePolarity,Positive*
G04*
G01*
G75*
%ADD13C,0.2500*%
G04:AMPARAMS|DCode=14|XSize=0.6mm|YSize=0.2803mm|CornerRadius=0mm|HoleSize=0mm|Usage=FLASHONLY|Rotation=135.000|XOffset=0mm|YOffset=0mm|HoleType=Round|Shape=Rectangle|*
%AMROTATEDRECTD14*
4,1,4,0.3112,-0.1130,0.1130,-0.3112,-0.3112,0.1130,-0.1130,0.3112,0.3112,-0.1130,0.0*
%
%ADD14ROTATEDRECTD14*%

%ADD15R,0.2803X0.6000*%
G04:AMPARAMS|DCode=16|XSize=0.6mm|YSize=0.2803mm|CornerRadius=0mm|HoleSize=0mm|Usage=FLASHONLY|Rotation=45.000|XOffset=0mm|YOffset=0mm|HoleType=Round|Shape=Rectangle|*
%AMROTATEDRECTD16*
4,1,4,-0.1130,-0.3112,-0.3112,-0.1130,0.1130,0.3112,0.3112,0.1130,-0.1130,-0.3112,0.0*
%
%ADD16ROTATEDRECTD16*%

%ADD17R,0.6000X0.2803*%
%ADD18C,0.7000*%
G04:AMPARAMS|DCode=19|XSize=1mm|YSize=0.6mm|CornerRadius=0mm|HoleSize=0mm|Usage=FLASHONLY|Rotation=315.000|XOffset=0mm|YOffset=0mm|HoleType=Round|Shape=Rectangle|*
%AMROTATEDRECTD19*
4,1,4,-0.5657,0.1414,-0.1414,0.5657,0.5657,-0.1414,0.1414,-0.5657,-0.5657,0.1414,0.0*
%
%ADD19ROTATEDRECTD19*%

%ADD20R,1.4000X1.1500*%
%ADD21C,0.2750*%
%ADD22P,6.8589X4X360.0*%
G04:AMPARAMS|DCode=23|XSize=0.6mm|YSize=0.2803mm|CornerRadius=0mm|HoleSize=0mm|Usage=FLASHONLY|Rotation=310.000|XOffset=0mm|YOffset=0mm|HoleType=Round|Shape=Rectangle|*
%AMROTATEDRECTD23*
4,1,4,-0.3002,0.1397,-0.0855,0.3199,0.3002,-0.1397,0.0855,-0.3199,-0.3002,0.1397,0.0*
%
%ADD23ROTATEDRECTD23*%

%ADD24R,1.5000X0.5000*%
%ADD25R,0.5000X0.9000*%
G04:AMPARAMS|DCode=26|XSize=0.45mm|YSize=0.35mm|CornerRadius=0mm|HoleSize=0mm|Usage=FLASHONLY|Rotation=225.000|XOffset=0mm|YOffset=0mm|HoleType=Round|Shape=Rectangle|*
%AMROTATEDRECTD26*
4,1,4,0.0354,0.2828,0.2828,0.0354,-0.0354,-0.2828,-0.2828,-0.0354,0.0354,0.2828,0.0*
%
%ADD26ROTATEDRECTD26*%

G04:AMPARAMS|DCode=27|XSize=0.35mm|YSize=0.45mm|CornerRadius=0mm|HoleSize=0mm|Usage=FLASHONLY|Rotation=225.000|XOffset=0mm|YOffset=0mm|HoleType=Round|Shape=Rectangle|*
%AMROTATEDRECTD27*
4,1,4,-0.0354,0.2828,0.2828,-0.0354,0.0354,-0.2828,-0.2828,0.0354,-0.0354,0.2828,0.0*
%
%ADD27ROTATEDRECTD27*%

G04:AMPARAMS|DCode=28|XSize=0.6mm|YSize=0.2803mm|CornerRadius=0mm|HoleSize=0mm|Usage=FLASHONLY|Rotation=220.000|XOffset=0mm|YOffset=0mm|HoleType=Round|Shape=Rectangle|*
%AMROTATEDRECTD28*
4,1,4,0.1397,0.3002,0.3199,0.0855,-0.1397,-0.3002,-0.3199,-0.0855,0.1397,0.3002,0.0*
%
%ADD28ROTATEDRECTD28*%

%ADD29C,0.7500*%
%ADD30R,1.1000X2.2000*%
%ADD31R,1.0000X1.0500*%
G04:AMPARAMS|DCode=32|XSize=0.7mm|YSize=0.8mm|CornerRadius=0mm|HoleSize=0mm|Usage=FLASHONLY|Rotation=225.000|XOffset=0mm|YOffset=0mm|HoleType=Round|Shape=Rectangle|*
%AMROTATEDRECTD32*
4,1,4,-0.0354,0.5303,0.5303,-0.0354,0.0354,-0.5303,-0.5303,0.0354,-0.0354,0.5303,0.0*
%
%ADD32ROTATEDRECTD32*%

G04:AMPARAMS|DCode=33|XSize=0.4mm|YSize=0.7mm|CornerRadius=0mm|HoleSize=0mm|Usage=FLASHONLY|Rotation=45.000|XOffset=0mm|YOffset=0mm|HoleType=Round|Shape=Rectangle|*
%AMROTATEDRECTD33*
4,1,4,0.1061,-0.3889,-0.3889,0.1061,-0.1061,0.3889,0.3889,-0.1061,0.1061,-0.3889,0.0*
%
%ADD33ROTATEDRECTD33*%

G04:AMPARAMS|DCode=34|XSize=1.25mm|YSize=0.7mm|CornerRadius=0mm|HoleSize=0mm|Usage=FLASHONLY|Rotation=45.000|XOffset=0mm|YOffset=0mm|HoleType=Round|Shape=Rectangle|*
%AMROTATEDRECTD34*
4,1,4,-0.1945,-0.6894,-0.6894,-0.1945,0.1945,0.6894,0.6894,0.1945,-0.1945,-0.6894,0.0*
%
%ADD34ROTATEDRECTD34*%

%ADD57C,0.1270*%
%ADD58C,0.5000*%
%ADD59C,0.4500*%
%ADD60C,0.5588*%
%ADD61C,0.6000*%
G36*
X99126Y76875D02*
X98154Y76472D01*
X97752Y75500D01*
Y66500D01*
X98154Y65528D01*
X99126Y65125D01*
Y53770D01*
X95007D01*
X94328Y55040D01*
X94835Y55798D01*
X95150Y57384D01*
X94835Y58970D01*
X93937Y60314D01*
X92593Y61212D01*
X91007Y61528D01*
X89421Y61212D01*
X88077Y60314D01*
X87179Y58970D01*
X86863Y57384D01*
X87179Y55798D01*
X88077Y54454D01*
X88622Y54090D01*
X88424Y52695D01*
X86058Y51945D01*
X80624Y50742D01*
X77889Y50723D01*
X76723Y51096D01*
X76456Y51350D01*
X75812Y52447D01*
X76710Y53791D01*
X77025Y55377D01*
X76710Y56962D01*
X75812Y58307D01*
X74468Y59205D01*
X72882Y59520D01*
X71296Y59205D01*
X69952Y58307D01*
X69906Y58239D01*
X68345Y58188D01*
X68242Y58257D01*
X67251Y58930D01*
Y71970D01*
X54711D01*
Y67183D01*
X46504Y59931D01*
X46375Y59763D01*
X46168Y59603D01*
X45698Y58991D01*
X45389Y58706D01*
X39160Y50145D01*
X30713Y41321D01*
X29907Y40056D01*
X29696Y38857D01*
X28538Y37885D01*
X31972Y33792D01*
X32809Y34495D01*
X33382Y34408D01*
X33770Y33065D01*
X30072Y29866D01*
X30045Y29812D01*
X29989Y29788D01*
X24991Y24683D01*
X24957Y24598D01*
X24877Y24551D01*
X22238Y21060D01*
X21762Y20965D01*
X20887Y20381D01*
X20303Y19506D01*
X20097Y18474D01*
X20303Y17442D01*
X20887Y16567D01*
X21762Y15982D01*
X22794Y15777D01*
X23826Y15982D01*
X24701Y16567D01*
X25286Y17442D01*
X25301Y17518D01*
X25345Y17558D01*
X26692Y18000D01*
X27065Y17750D01*
X27914Y17581D01*
X28097Y17545D01*
X28936Y16706D01*
X28973Y16522D01*
X29141Y15674D01*
X29726Y14799D01*
X30601Y14214D01*
X31449Y14046D01*
X31633Y14009D01*
X32472Y13170D01*
X32508Y12987D01*
X32677Y12138D01*
X32927Y11764D01*
X32485Y10418D01*
X32445Y10374D01*
X32369Y10359D01*
X31494Y9774D01*
X30909Y8899D01*
X30704Y7867D01*
X30909Y6835D01*
X31494Y5960D01*
X32369Y5375D01*
X33217Y5207D01*
X33401Y5170D01*
X34239Y4331D01*
X34276Y4148D01*
X34445Y3300D01*
X35029Y2425D01*
X35904Y1840D01*
X36753Y1671D01*
X36936Y1635D01*
X37775Y796D01*
X37812Y613D01*
X37912Y110D01*
X37139Y-1089D01*
X36218Y-1188D01*
X35819Y-591D01*
X34407Y353D01*
X32741Y684D01*
X32493Y635D01*
X31595Y1533D01*
X31644Y1777D01*
X31312Y3443D01*
X30369Y4855D01*
X28956Y5799D01*
X27741Y6041D01*
X26595Y6786D01*
X26263Y8452D01*
X25319Y9864D01*
X23907Y10808D01*
X22408Y11106D01*
X21979Y11346D01*
X21297Y12028D01*
X21309Y12089D01*
X20978Y13755D01*
X20034Y15168D01*
X18621Y16112D01*
X16955Y16443D01*
X16269Y17129D01*
X16300Y17286D01*
X15969Y18952D01*
X15025Y20364D01*
X13613Y21308D01*
X13571Y21385D01*
X13866Y22264D01*
X14929Y22926D01*
X15455Y22822D01*
X15655Y22861D01*
X15723Y22848D01*
X15791Y22861D01*
X15991Y22822D01*
X16517Y22926D01*
X16687Y23040D01*
X16755Y23053D01*
X16812Y23091D01*
X17013Y23131D01*
X17459Y23429D01*
X17573Y23599D01*
X17630Y23638D01*
X17668Y23695D01*
X17838Y23809D01*
X18136Y24255D01*
X18176Y24455D01*
X18215Y24513D01*
X18216Y24519D01*
X18652Y24795D01*
X19674Y24941D01*
X19736Y24899D01*
X19937Y24859D01*
X19994Y24821D01*
X20062Y24808D01*
X20232Y24694D01*
X20758Y24589D01*
X20959Y24629D01*
X21026Y24616D01*
X21094Y24629D01*
X21295Y24589D01*
X21821Y24694D01*
X21991Y24808D01*
X22058Y24821D01*
X22116Y24859D01*
X22316Y24899D01*
X22762Y25197D01*
X22876Y25367D01*
X22933Y25405D01*
X22972Y25463D01*
X23142Y25577D01*
X23440Y26023D01*
X23480Y26223D01*
X23518Y26281D01*
X23525Y26318D01*
X23634Y26469D01*
X26218Y37357D01*
X26214Y37383D01*
X26229Y37406D01*
X26442Y38475D01*
X26431Y38529D01*
X26458Y38577D01*
X26898Y42180D01*
X27369Y42576D01*
X26730Y43338D01*
X26663Y43579D01*
X26641Y43592D01*
X26633Y43616D01*
X22777Y48212D01*
X22534Y48338D01*
X21880Y49118D01*
X21880D01*
X20903Y49832D01*
X20443Y50484D01*
X20358Y50546D01*
X20326Y50646D01*
X16470Y55242D01*
X16227Y55368D01*
X15587Y56131D01*
X15743Y56916D01*
X15427Y58502D01*
X14529Y59847D01*
X13185Y60745D01*
X11599Y61060D01*
X10014Y60745D01*
X8669Y59847D01*
X7771Y58502D01*
X7597Y57627D01*
X6275Y57491D01*
X5060Y60360D01*
X5046Y60393D01*
X4999Y60529D01*
X4668Y61514D01*
X4647Y61563D01*
X4568Y62736D01*
Y72894D01*
X4629Y72921D01*
X4668Y73014D01*
X4646Y73064D01*
X5422Y73910D01*
X7610Y76244D01*
X19800D01*
Y80414D01*
X20699Y81311D01*
X23613Y81308D01*
Y80574D01*
X32153D01*
Y85917D01*
X23613D01*
Y85917D01*
X22888Y85193D01*
X19800Y85197D01*
Y90283D01*
X3260D01*
Y77284D01*
X2593Y76572D01*
X1713Y75655D01*
X1713Y75655D01*
X941Y74500D01*
X646Y73014D01*
X683D01*
Y63328D01*
X-587Y62669D01*
X-2200Y63807D01*
Y74283D01*
X-18740D01*
Y69569D01*
X-20010Y69232D01*
X-20406Y69620D01*
Y69620D01*
X-28946D01*
Y64277D01*
X-20406D01*
Y64277D01*
X-19938Y64402D01*
X-18740Y63443D01*
Y60244D01*
X-3887D01*
X-2660Y59378D01*
X-2569Y58555D01*
X-3716Y57794D01*
X-3914Y57927D01*
X-5580Y58258D01*
X-7246Y57927D01*
X-8659Y56983D01*
X-9602Y55571D01*
X-9934Y53905D01*
X-9602Y52238D01*
X-8659Y50826D01*
X-8041Y50413D01*
X-8024Y50357D01*
X-8182Y48985D01*
X-8400Y48466D01*
X-8593Y45278D01*
X-8893Y43600D01*
X-9585Y42065D01*
X-10613Y40366D01*
X-10657Y40284D01*
X-11502Y38467D01*
X-11557Y38310D01*
X-12074Y36191D01*
X-12096Y36056D01*
X-12137Y35524D01*
X-12241Y35481D01*
X-12241Y35481D01*
X-16483Y31239D01*
X-16588Y30986D01*
X-17244Y30331D01*
X-17326Y30255D01*
X-18319Y29644D01*
X-22440Y33764D01*
X-28001Y45231D01*
X-27389Y46146D01*
X-27058Y47813D01*
X-27389Y49479D01*
X-28333Y50891D01*
X-29746Y51835D01*
X-31412Y52166D01*
X-33078Y51835D01*
X-34490Y50891D01*
X-35434Y49479D01*
X-35765Y47813D01*
X-35434Y46146D01*
X-34490Y44734D01*
X-33078Y43790D01*
X-31464Y43469D01*
X-26499Y33233D01*
X-27982Y31750D01*
X-21943Y25712D01*
X-21943Y25712D01*
X-21322Y25035D01*
X-21322Y25035D01*
X-15283Y18997D01*
X-12483Y21797D01*
X-11157Y21327D01*
X-10951Y19371D01*
X-11825Y19197D01*
X-12700Y18613D01*
X-13285Y17738D01*
X-13454Y16889D01*
X-13490Y16706D01*
X-14329Y15867D01*
X-14512Y15831D01*
X-15361Y15662D01*
X-16236Y15077D01*
X-16694Y14392D01*
X-17497Y14271D01*
X-18090Y14331D01*
X-18720Y15560D01*
X-17302Y16978D01*
X-23341Y23017D01*
X-23341Y23017D01*
X-23962Y23693D01*
X-23962Y23693D01*
X-30000Y29732D01*
X-31153Y28579D01*
X-44606Y37140D01*
X-44645Y37155D01*
X-44841Y37305D01*
X-46448Y37971D01*
X-48172Y38198D01*
X-49896Y37971D01*
X-50370Y37775D01*
X-50518Y37750D01*
X-55123Y36011D01*
X-55198Y36069D01*
X-55212Y36075D01*
X-55257Y36057D01*
X-55312Y35986D01*
X-58778Y36350D01*
X-64758Y42330D01*
X-68474Y38614D01*
X-69734Y38774D01*
X-70087Y39372D01*
X-70598Y40401D01*
X-69032Y42433D01*
X-67172Y44420D01*
X-66615Y44649D01*
X-65715Y44526D01*
X-64303Y43583D01*
X-62637Y43251D01*
X-60971Y43583D01*
X-59558Y44527D01*
X-58615Y45939D01*
X-58283Y47605D01*
X-58439Y48387D01*
X-57832Y49094D01*
X-56742Y49107D01*
X-48495Y40859D01*
X-42456Y46898D01*
X-45876Y50317D01*
X-42802Y54248D01*
X-42548Y54264D01*
X-42548D01*
X-36509Y60303D01*
X-40287Y64080D01*
X-40091Y65269D01*
X-40068Y65397D01*
X-40059Y65460D01*
X-39952Y66509D01*
X-39134Y67441D01*
Y67441D01*
X-33095Y73479D01*
X-36873Y77257D01*
X-38495Y75635D01*
X-39669Y76119D01*
X-39669Y76211D01*
X-39806Y76670D01*
X-40169Y76982D01*
X-42475Y78025D01*
X-42549Y78054D01*
X-44836Y78841D01*
X-44919Y78865D01*
X-47188Y79396D01*
X-47278Y79412D01*
X-49529Y79688D01*
X-49625Y79694D01*
X-51857Y79714D01*
X-51864Y79714D01*
X-51954Y79710D01*
X-54168Y79474D01*
X-54264Y79458D01*
X-56459Y78967D01*
X-56550Y78941D01*
X-58727Y78194D01*
X-58769Y78179D01*
X-59983Y77689D01*
X-60201Y77834D01*
X-61867Y78166D01*
X-63533Y77834D01*
X-64661Y78302D01*
X-64722Y78609D01*
X-65565Y79869D01*
X-65565Y79869D01*
X-66489Y80741D01*
X-67573Y81825D01*
X-67546Y81851D01*
X-68807Y82693D01*
X-69670Y82865D01*
X-69870Y82928D01*
X-72627Y83233D01*
X-76090Y86696D01*
X-82128Y80658D01*
X-79039Y77569D01*
X-79443Y76176D01*
X-84285Y75085D01*
X-86458Y77257D01*
X-92496Y71219D01*
X-88719Y67441D01*
X-85281Y70878D01*
X-82389Y71530D01*
X-81751Y70372D01*
X-86700Y65423D01*
Y65423D01*
X-87331Y64257D01*
X-87590Y64255D01*
X-87590D01*
X-92840Y59005D01*
X-99080Y54989D01*
X-99831Y55491D01*
X-101692Y55862D01*
X-103553Y55491D01*
X-105131Y54437D01*
X-106185Y52859D01*
X-106556Y50998D01*
X-106185Y49137D01*
X-105131Y47559D01*
X-103553Y46505D01*
X-103244Y45836D01*
X-103861Y44729D01*
X-103919Y44602D01*
X-105067Y41390D01*
X-105100Y41270D01*
X-105811Y37692D01*
X-105827Y37526D01*
X-105697Y37075D01*
X-105347Y36761D01*
X-102116Y35198D01*
X-102063Y35174D01*
X-91271Y30838D01*
X-89624Y29996D01*
X-88280Y28917D01*
X-88091Y28729D01*
X-88036Y28674D01*
X-80879Y21640D01*
X-80861Y21622D01*
X-80841Y21602D01*
X-73800Y14590D01*
X-73789Y14578D01*
X-70834Y11624D01*
X-70327Y10413D01*
X-71385Y9033D01*
X-71498Y8761D01*
X-71538Y8710D01*
X-75164Y1570D01*
X-77910Y1000D01*
X-81001Y747D01*
X-84266Y850D01*
X-87726Y1314D01*
X-98567Y3287D01*
X-98719Y3300D01*
X-98941Y3271D01*
X-104616Y1733D01*
X-105078Y1416D01*
X-113002Y-9366D01*
X-113021Y-9394D01*
X-114692Y-11865D01*
X-114729Y-11925D01*
X-116133Y-14428D01*
X-116168Y-14496D01*
X-117306Y-17031D01*
X-117335Y-17106D01*
X-118174Y-19578D01*
X-119396Y-21515D01*
X-119880Y-21612D01*
X-121293Y-22555D01*
X-122236Y-23968D01*
X-122568Y-25634D01*
X-122236Y-27300D01*
X-122051Y-27578D01*
X-122525Y-29309D01*
X-122551Y-29444D01*
X-122905Y-32769D01*
X-122909Y-32859D01*
X-122908Y-32906D01*
X-122722Y-36297D01*
X-122705Y-36425D01*
X-121979Y-39881D01*
X-121947Y-39994D01*
X-120680Y-43516D01*
X-120640Y-43611D01*
X-118833Y-47197D01*
X-118811Y-47238D01*
X-109043Y-64259D01*
X-108899Y-64363D01*
X-108478Y-64668D01*
X-81246Y-70313D01*
X-81222Y-70318D01*
X-78716Y-70763D01*
X-78692Y-70767D01*
X-40527Y-76420D01*
X-40493Y-76425D01*
X-37946Y-76698D01*
X-37912Y-76701D01*
X-5278Y-78879D01*
X-5229Y-78881D01*
X-2112Y-78909D01*
X-2105Y-78909D01*
X-2015Y-78904D01*
X1102Y-78571D01*
X1150Y-78565D01*
X2041Y-78418D01*
X2079Y-78411D01*
X4413Y-77916D01*
X9207Y-79826D01*
X9242Y-79840D01*
X11402Y-80592D01*
X11476Y-80614D01*
X13636Y-81151D01*
X13675Y-81160D01*
X15414Y-81505D01*
X15490Y-81517D01*
X19379Y-81929D01*
X19457Y-81934D01*
X21196Y-81957D01*
X21207Y-81957D01*
X21274Y-81955D01*
X25136Y-81650D01*
X25212Y-81640D01*
X26396Y-81437D01*
X39147Y-84294D01*
X50385Y-86806D01*
X52142Y-87362D01*
X53308Y-87848D01*
X53381Y-87875D01*
X55217Y-88450D01*
X55291Y-88470D01*
X55982Y-88619D01*
X56058Y-88632D01*
X58113Y-88885D01*
X58216Y-88891D01*
X58419Y-88832D01*
X58673Y-88758D01*
X58709Y-88735D01*
X58710Y-88734D01*
X59017Y-88537D01*
X67001Y-83427D01*
X67324Y-83750D01*
X68037Y-83037D01*
X68283Y-82939D01*
X69279Y-81968D01*
X69569Y-81783D01*
X69665Y-81711D01*
X70635Y-80877D01*
X70724Y-80789D01*
X71968Y-79350D01*
X78738Y-72757D01*
X78797Y-72619D01*
X78922Y-72536D01*
X80281Y-70502D01*
X80309Y-70364D01*
X80408Y-70264D01*
Y-69991D01*
X80691Y-69307D01*
X80932Y-67479D01*
X80990Y-67339D01*
X80936Y-67209D01*
X80964Y-67070D01*
X80486Y-64671D01*
X80397Y-64537D01*
X80392Y-64376D01*
X80240Y-64036D01*
X79830Y-60217D01*
X80281Y-59542D01*
X80325Y-59321D01*
X80463Y-59145D01*
X81629Y-54931D01*
X81705Y-54827D01*
X81794Y-54674D01*
X82467Y-53172D01*
X82526Y-52990D01*
X82843Y-51399D01*
X82857Y-51305D01*
X82906Y-50729D01*
X83259Y-50375D01*
X82961Y-50077D01*
X84375Y-33502D01*
X84451Y-32823D01*
X84685Y-31132D01*
X84697Y-31129D01*
X86110Y-30186D01*
X87053Y-28773D01*
X87385Y-27107D01*
X87053Y-25441D01*
X86110Y-24029D01*
X85412Y-23563D01*
X85433Y-22909D01*
X85434Y-22882D01*
X85432Y-22825D01*
X85014Y-16559D01*
X85008Y-16475D01*
X85008Y-16475D01*
X84741Y-15911D01*
X84160Y-15682D01*
X84160Y-15682D01*
X84009Y-15695D01*
X82959Y-15885D01*
X82915Y-15894D01*
X79748Y-16643D01*
X79648Y-16673D01*
X77784Y-17364D01*
X77253Y-16570D01*
X75593Y-15461D01*
X73634Y-15071D01*
X71675Y-15461D01*
X70015Y-16570D01*
X68905Y-18231D01*
X68516Y-20189D01*
X68816Y-21700D01*
X68365Y-23085D01*
X66953Y-24029D01*
X66341Y-24944D01*
X65872Y-25116D01*
X63571Y-25329D01*
X61252Y-24910D01*
X59417Y-24082D01*
X59595Y-23178D01*
X60044Y-21831D01*
X60639Y-20653D01*
X61398Y-19606D01*
X61776Y-19166D01*
X61833Y-19093D01*
X62839Y-17627D01*
X62924Y-17468D01*
X63621Y-15767D01*
X63668Y-15612D01*
X64055Y-13676D01*
X64071Y-13540D01*
X64148Y-11370D01*
X64149Y-11339D01*
X64145Y-11258D01*
X63913Y-8853D01*
X63899Y-8764D01*
X63358Y-6125D01*
X63340Y-6054D01*
X63160Y-5445D01*
X70208Y-2144D01*
X71675Y-3125D01*
X73634Y-3514D01*
X75593Y-3125D01*
X77253Y-2015D01*
X78363Y-355D01*
X78752Y1604D01*
X78363Y3563D01*
X77253Y5223D01*
X75593Y6333D01*
X75230Y6405D01*
Y7700D01*
X75593Y7772D01*
X77253Y8882D01*
X78363Y10542D01*
X78752Y12501D01*
X78363Y14460D01*
X77253Y16120D01*
X75593Y17230D01*
X73634Y17619D01*
X71675Y17230D01*
X70015Y16120D01*
X68905Y14460D01*
X68516Y12501D01*
X68803Y11058D01*
X60568Y4320D01*
X60525Y4302D01*
X58964Y4649D01*
X57153Y7868D01*
X56959Y8065D01*
X64965Y21493D01*
X65671Y21353D01*
X67630Y21742D01*
X69291Y22852D01*
X70400Y24512D01*
X70790Y26471D01*
X70400Y28430D01*
X69291Y30090D01*
X67630Y31200D01*
X65671Y31589D01*
X63713Y31200D01*
X62052Y30090D01*
X60943Y28430D01*
X60553Y26471D01*
X60943Y24512D01*
X61630Y23484D01*
X51221Y6026D01*
X49112Y4907D01*
X49080Y4890D01*
X47874Y4182D01*
X47682Y4471D01*
X46807Y5055D01*
X45958Y5224D01*
X45775Y5261D01*
X44936Y6099D01*
X44900Y6283D01*
X44731Y7131D01*
X44146Y8006D01*
X43271Y8591D01*
X42423Y8760D01*
X42239Y8796D01*
X41401Y9635D01*
X41364Y9818D01*
X41196Y10667D01*
X40611Y11542D01*
X39736Y12126D01*
X38888Y12295D01*
X38704Y12332D01*
X37865Y13170D01*
X37829Y13354D01*
X37660Y14202D01*
X37075Y15077D01*
X36200Y15662D01*
X35303Y15840D01*
X35192Y16048D01*
X35221Y16268D01*
X36371Y17335D01*
X37956Y17650D01*
X39301Y18548D01*
X40199Y19892D01*
X40514Y21478D01*
X40199Y23064D01*
X39301Y24408D01*
X37956Y25306D01*
X37242Y25449D01*
X37019Y26788D01*
X40360Y28728D01*
X40388Y28765D01*
X40434Y28774D01*
X41027Y29170D01*
X41077Y29195D01*
X41152Y29253D01*
X41245Y29316D01*
X41259Y29337D01*
X46470Y33402D01*
X47697Y32748D01*
X47932Y31567D01*
X48830Y30222D01*
X50175Y29324D01*
X51761Y29009D01*
X53346Y29324D01*
X54690Y30222D01*
X55589Y31567D01*
X55904Y33152D01*
X55589Y34738D01*
X54690Y36082D01*
X53346Y36981D01*
X53197Y38305D01*
X59985Y42927D01*
X62772Y42962D01*
X63183Y42556D01*
Y42556D01*
X68526D01*
Y44123D01*
X68578Y44159D01*
X69255Y45200D01*
X70027Y45295D01*
X70641Y45178D01*
X71361Y44115D01*
X71381Y44103D01*
Y42772D01*
X71381Y42556D01*
X71069Y41415D01*
X70916Y41384D01*
X69503Y40441D01*
X68560Y39028D01*
X68228Y37362D01*
X68560Y35696D01*
X69503Y34284D01*
X70916Y33340D01*
X72582Y33008D01*
X74248Y33340D01*
X75660Y34284D01*
X76604Y35696D01*
X76936Y37362D01*
X76604Y39028D01*
X75660Y40441D01*
X75409Y40609D01*
X75152Y42308D01*
X75353Y42556D01*
X76723D01*
Y43027D01*
X81084Y43057D01*
X81482Y43139D01*
X81888Y43148D01*
X87887Y44477D01*
X88046Y44546D01*
X88217Y44565D01*
X93471Y46230D01*
X99126D01*
Y-97410D01*
X-152410D01*
Y97410D01*
X99126D01*
Y76875D01*
D02*
G37*
G36*
X-49688Y77995D02*
X-49017Y77913D01*
X-48708Y77015D01*
Y77015D01*
X-44930Y73237D01*
X-42637Y75530D01*
X-41365Y75006D01*
X-41358Y73200D01*
X-41363Y72767D01*
X-42912Y71219D01*
X-42198Y70504D01*
X-44094Y68337D01*
X-44695Y68316D01*
X-44694D01*
X-50733Y62278D01*
X-47995Y59540D01*
X-48012Y58270D01*
X-50999Y55441D01*
X-51323Y55765D01*
X-53420Y53668D01*
X-55765Y52955D01*
X-55818Y52937D01*
X-58499Y51925D01*
X-58553Y51903D01*
X-59497Y51471D01*
X-59525Y51457D01*
X-60205Y51115D01*
X-60971Y51627D01*
X-62637Y51959D01*
X-64303Y51627D01*
X-65715Y50683D01*
X-66659Y49271D01*
X-66990Y47605D01*
X-66860Y46949D01*
X-68225Y45775D01*
X-68292Y45711D01*
X-70301Y43565D01*
X-70354Y43503D01*
X-72269Y41018D01*
X-72446Y40499D01*
X-72357Y40121D01*
X-71596Y38588D01*
X-71567Y38535D01*
X-70449Y36639D01*
X-70797Y36291D01*
X-68839Y34333D01*
X-68697Y34137D01*
X-68673Y34105D01*
X-68618Y34035D01*
X-68593Y34006D01*
X-67039Y32220D01*
X-66749Y30494D01*
X-66590Y30147D01*
X-64823Y28008D01*
X-64785Y27966D01*
X-63063Y26184D01*
X-63010Y26135D01*
X-61333Y24711D01*
X-61260Y24656D01*
X-59628Y23591D01*
X-59581Y23562D01*
X-58732Y23094D01*
X-57602Y22339D01*
X-56711Y21465D01*
X-56022Y20450D01*
X-55527Y19281D01*
X-55226Y17942D01*
X-55125Y16426D01*
X-55234Y14729D01*
X-55529Y13021D01*
X-57556Y10640D01*
X-57741Y10545D01*
X-57766Y10533D01*
X-63955Y12133D01*
X-63952Y12144D01*
X-65617Y12364D01*
X-67341Y12137D01*
X-68504Y11655D01*
X-68816Y12007D01*
X-68852Y12046D01*
X-72587Y15781D01*
X-72588Y15782D01*
X-72599Y15793D01*
X-79642Y22808D01*
X-79666Y22831D01*
X-79686Y22851D01*
X-86843Y29885D01*
X-86844Y29886D01*
X-86891Y29932D01*
X-87110Y30152D01*
X-87179Y30214D01*
X-88627Y31376D01*
X-88772Y31470D01*
X-90531Y32369D01*
X-90601Y32401D01*
X-101402Y36741D01*
X-104016Y38005D01*
X-103445Y40877D01*
X-102342Y43963D01*
X-101062Y46260D01*
X-99831Y46505D01*
X-98253Y47559D01*
X-97199Y49137D01*
X-96829Y50998D01*
X-96857Y51138D01*
X-95114Y52922D01*
X-90989Y55577D01*
X-89851Y54438D01*
X-83812Y60477D01*
Y60477D01*
X-83181Y61642D01*
X-82922Y61645D01*
X-82922D01*
X-77081Y67486D01*
X-76836Y67621D01*
X-75747Y68111D01*
D01*
X-75747Y68111D01*
X-66880Y59244D01*
X-66354Y59770D01*
X-66393Y59867D01*
X-66313Y59900D01*
X-66163Y59988D01*
X-66094Y60042D01*
X-66035Y60089D01*
X-60841Y65283D01*
X-64053Y68494D01*
X-62982Y69680D01*
X-61867Y69458D01*
X-60201Y69790D01*
X-58788Y70734D01*
X-57844Y72146D01*
X-57513Y73812D01*
X-57844Y75478D01*
X-57266Y76898D01*
X-56042Y77318D01*
X-53940Y77789D01*
X-51823Y78014D01*
X-49688Y77995D01*
D02*
G37*
G36*
X148126Y66500D02*
X99126D01*
Y75500D01*
X148126D01*
Y66500D01*
D02*
G37*
G36*
X147876Y47500D02*
X106876D01*
Y52500D01*
X147876D01*
Y47500D01*
D02*
G37*
G36*
X4506Y35585D02*
X4393Y35415D01*
X4187Y34383D01*
X4393Y33352D01*
X4977Y32477D01*
X5852Y31892D01*
X6884Y31687D01*
X7916Y31892D01*
X8791Y32477D01*
X9376Y33352D01*
X9581Y34383D01*
X9376Y35415D01*
X8791Y36291D01*
X8239Y36659D01*
X5372Y46410D01*
X6570Y46838D01*
X11446Y35327D01*
X11258Y34383D01*
X11464Y33352D01*
X12048Y32477D01*
X12923Y31892D01*
X13265Y31824D01*
X14236Y30546D01*
X13579Y28112D01*
X13084Y26882D01*
X11840Y26628D01*
X10420Y28048D01*
X5375Y23003D01*
X4956Y23015D01*
X3890Y23314D01*
X3488Y23916D01*
X2613Y24501D01*
X2537Y24516D01*
X2496Y24560D01*
X2055Y25907D01*
X2305Y26281D01*
X2510Y27313D01*
X2305Y28345D01*
X1720Y29219D01*
X845Y29804D01*
X-187Y30009D01*
X-1219Y29804D01*
X-2094Y29219D01*
X-2518Y28584D01*
X-3503Y28343D01*
X-3974Y28342D01*
X-7491Y32527D01*
X-7491Y32527D01*
X-8235Y33412D01*
X-8291Y33441D01*
X-8315Y33500D01*
X-10297Y35481D01*
X-10431Y35537D01*
X-10406Y35854D01*
X-9925Y37826D01*
X-9135Y39525D01*
X-8361Y40803D01*
X-7845Y40869D01*
X-6542Y44887D01*
X-5936Y45794D01*
X-5030Y46399D01*
X-3960Y46612D01*
X-2891Y46399D01*
X-1985Y45794D01*
X-1379Y44887D01*
X-1166Y43818D01*
X-1379Y42749D01*
X-2618Y39941D01*
X-2375Y39990D01*
X-1030Y40888D01*
X-132Y42232D01*
X183Y43818D01*
X-132Y45404D01*
X-1030Y46748D01*
X-1714Y47205D01*
X-1423Y48538D01*
X601Y48863D01*
X4506Y35585D01*
D02*
G37*
G36*
X25580Y42732D02*
X25094Y38743D01*
X24881Y37674D01*
X22297Y26786D01*
X21999Y26340D01*
X21553Y26042D01*
X21026Y25938D01*
X20500Y26042D01*
X20054Y26340D01*
X19756Y26786D01*
X19651Y27313D01*
X19506Y38743D01*
X19576Y45527D01*
X21724Y47328D01*
X25580Y42732D01*
D02*
G37*
G36*
X19273Y49762D02*
X18341Y45819D01*
X18312Y45699D01*
X18307Y45576D01*
X17870Y34383D01*
X17098Y25545D01*
X16993Y25018D01*
X16695Y24572D01*
X16249Y24274D01*
X15723Y24170D01*
X15197Y24274D01*
X14751Y24572D01*
X14453Y25018D01*
X14348Y25545D01*
X14453Y26071D01*
X16509Y33695D01*
X16560Y33885D01*
X16605Y34278D01*
X16592Y34673D01*
X16556Y34867D01*
X13269Y52557D01*
X15416Y54359D01*
X19273Y49762D01*
D02*
G37*
G36*
X-9287Y32527D02*
X-2750Y24749D01*
X-2452Y24303D01*
X-2347Y23777D01*
X-2452Y23251D01*
X-2750Y22805D01*
X-3196Y22507D01*
X-3722Y22402D01*
X-4249Y22507D01*
X-13529Y28285D01*
X-15511Y30267D01*
X-11269Y34509D01*
X-9287Y32527D01*
D02*
G37*
G36*
X39670Y34536D02*
X40481Y33994D01*
X41023Y33183D01*
X41213Y32226D01*
X41023Y31270D01*
X40481Y30459D01*
X39670Y29917D01*
X32878Y25972D01*
X26649Y22970D01*
X23178Y17937D01*
X22972Y17800D01*
X22729Y17751D01*
X22486Y17800D01*
X22280Y17937D01*
X22142Y18143D01*
X22094Y18386D01*
X22142Y18629D01*
X22280Y18835D01*
X25973Y23722D01*
X30971Y28827D01*
X36946Y33994D01*
X37757Y34536D01*
X38713Y34726D01*
X39670Y34536D01*
D02*
G37*
G36*
X-42767Y13568D02*
X-40429Y6299D01*
X-41391Y5653D01*
X-41469Y5594D01*
X-42056Y5092D01*
X-42070Y5080D01*
X-44887Y2564D01*
X-44904Y2548D01*
X-45334Y2141D01*
X-45410Y2060D01*
X-46756Y403D01*
X-46848Y262D01*
X-47878Y-1698D01*
X-47976Y-2094D01*
X-47834Y-2563D01*
X-46931Y-3926D01*
X-46859Y-4020D01*
X-45838Y-5173D01*
X-45744Y-5264D01*
X-44606Y-6207D01*
X-44492Y-6287D01*
X-43237Y-7019D01*
X-43175Y-7052D01*
X-40389Y-8383D01*
X-40202Y-8441D01*
X-40151Y-8456D01*
X-35030Y-9237D01*
X-34947Y-9246D01*
X-34096Y-9291D01*
X-33629Y-9384D01*
X-32597Y-9179D01*
X-32147Y-9111D01*
X-32063Y-9094D01*
X-28580Y-8202D01*
X-27735Y-8767D01*
X-26703Y-8972D01*
X-25671Y-8767D01*
X-25237Y-8477D01*
X-24162Y-9552D01*
X-24174Y-9971D01*
X-24473Y-11037D01*
X-25075Y-11439D01*
X-25659Y-12314D01*
X-25660Y-12316D01*
X-25669Y-12326D01*
X-25992Y-12530D01*
X-27049Y-12789D01*
X-27181Y-12701D01*
X-27382Y-12661D01*
X-27439Y-12622D01*
X-27507Y-12609D01*
X-27677Y-12495D01*
X-28203Y-12391D01*
X-28403Y-12431D01*
X-28471Y-12417D01*
X-28539Y-12431D01*
X-28739Y-12391D01*
X-29265Y-12495D01*
X-29324Y-12535D01*
X-29395Y-12528D01*
X-35298Y-14309D01*
X-35575Y-14032D01*
X-36294Y-14752D01*
X-36547Y-14856D01*
X-38529Y-16838D01*
X-38633Y-17091D01*
X-38735Y-17193D01*
X-40362Y-16592D01*
X-41583Y-16043D01*
X-42654Y-15357D01*
X-43544Y-14683D01*
X-43594Y-14648D01*
X-44711Y-13940D01*
X-44820Y-13883D01*
X-46046Y-13368D01*
X-46158Y-13331D01*
X-47492Y-13009D01*
X-47599Y-12991D01*
X-48631Y-12899D01*
X-49684Y-10789D01*
X-49779Y-10645D01*
X-49862Y-10546D01*
X-49950Y-10103D01*
X-50848Y-8758D01*
X-52193Y-7860D01*
X-53778Y-7545D01*
X-54899Y-7768D01*
X-55322Y-7723D01*
X-55398Y-7719D01*
X-55438Y-7720D01*
X-56786Y-7793D01*
X-56837Y-7798D01*
X-59833Y-8168D01*
X-62316Y-8290D01*
X-62584Y-8380D01*
X-62695Y-8418D01*
X-62951Y-8724D01*
X-63736Y-10480D01*
X-64670Y-12003D01*
X-65770Y-13336D01*
X-67059Y-14503D01*
X-67803Y-15085D01*
X-67869Y-15144D01*
X-70312Y-17581D01*
X-70409Y-17701D01*
X-72501Y-20917D01*
X-72558Y-21024D01*
X-74299Y-25019D01*
X-74331Y-25107D01*
X-75721Y-29882D01*
X-75750Y-30087D01*
X-75743Y-30099D01*
X-76293Y-31503D01*
X-76396Y-31523D01*
X-77808Y-32467D01*
X-78752Y-33880D01*
X-79083Y-35546D01*
X-78752Y-37212D01*
X-77808Y-38624D01*
X-76924Y-39215D01*
X-76630Y-40718D01*
X-78382Y-42469D01*
X-71636Y-49215D01*
X-61001Y-38580D01*
X-61553Y-38028D01*
X-60919Y-36928D01*
X-53722Y-38844D01*
X-50787Y-41780D01*
X-49940Y-40933D01*
X-49768Y-40986D01*
X-49410Y-42423D01*
X-54887Y-47900D01*
X-47434Y-55353D01*
X-41870Y-49790D01*
X-40580Y-49700D01*
X-39389Y-49617D01*
X-39210Y-49575D01*
X-39198Y-49573D01*
X-39199Y-49573D01*
X-39210Y-49575D01*
X-39376Y-49614D01*
X-39199Y-49573D01*
X-38188Y-49372D01*
X-38201Y-49341D01*
X-37994Y-49256D01*
X-31238Y-46497D01*
X-30521Y-47576D01*
X-35088Y-52143D01*
X-27635Y-59596D01*
X-22940Y-54901D01*
X-20309Y-55138D01*
X-20222Y-55326D01*
X-20180Y-55402D01*
X-18744Y-57724D01*
X-18672Y-57822D01*
X-17156Y-59552D01*
X-17030Y-59666D01*
X-17021Y-59672D01*
X-16969Y-59936D01*
X-16025Y-61348D01*
X-14613Y-62292D01*
X-12947Y-62624D01*
X-11281Y-62292D01*
X-10664Y-61880D01*
X-5431Y-62639D01*
X-3611Y-64460D01*
X167Y-60682D01*
X-1438Y-59076D01*
X-1438Y-59073D01*
X-1435Y-59012D01*
X-1446Y-58884D01*
X-1692Y-57489D01*
X-1739Y-57331D01*
X-2343Y-55896D01*
X-2405Y-55779D01*
X-3369Y-54304D01*
X-3401Y-54259D01*
X-4108Y-53334D01*
X-4163Y-53271D01*
X-9403Y-47840D01*
X-9354Y-47396D01*
X-5891Y-43933D01*
X-9285Y-40539D01*
X-9020Y-39175D01*
X-8290Y-38819D01*
X-7441Y-38987D01*
X-7258Y-39024D01*
X-6419Y-39863D01*
X-6383Y-40046D01*
X-6214Y-40895D01*
X-5629Y-41770D01*
X-4754Y-42354D01*
X-3722Y-42559D01*
X-2690Y-42354D01*
X-1815Y-41770D01*
X-1231Y-40895D01*
X-1026Y-39863D01*
X-1231Y-38831D01*
X-1481Y-38457D01*
X-1039Y-37110D01*
X-999Y-37066D01*
X-923Y-37051D01*
X-48Y-36466D01*
X355Y-35864D01*
X1420Y-35566D01*
X1839Y-35553D01*
X3277Y-36991D01*
X3873Y-37977D01*
X4760Y-40142D01*
X5242Y-42350D01*
X5258Y-42493D01*
X5285Y-42733D01*
X5286Y-42749D01*
X5349Y-43233D01*
X5351Y-43249D01*
X5379Y-43436D01*
X6461Y-50738D01*
X6554Y-51016D01*
X7061Y-51959D01*
X7107Y-52035D01*
X8562Y-54170D01*
X8684Y-54313D01*
X10529Y-56037D01*
X10679Y-56149D01*
X11977Y-56912D01*
X12180Y-58505D01*
X12044Y-58641D01*
X17068Y-63666D01*
X17210Y-63896D01*
X16913Y-64341D01*
X16597Y-65927D01*
X16913Y-67512D01*
X17811Y-68857D01*
X19155Y-69755D01*
X20741Y-70070D01*
X22327Y-69755D01*
X23671Y-68857D01*
X24569Y-67512D01*
X24885Y-65927D01*
X24569Y-64341D01*
X23671Y-62997D01*
X22407Y-62152D01*
X22281Y-62009D01*
X21861Y-60902D01*
X21861Y-60902D01*
X21860Y-60902D01*
X19088Y-58130D01*
X19661Y-52963D01*
X19737Y-52934D01*
X19768Y-52860D01*
X19742Y-52793D01*
X20500Y-51917D01*
X24952Y-46842D01*
X24952Y-46842D01*
X24958Y-46847D01*
X25910Y-45421D01*
X26240Y-43763D01*
X26240D01*
X26236Y-43758D01*
X26321Y-42549D01*
X27602Y-42439D01*
X29496Y-50132D01*
X29796Y-51365D01*
X29814Y-51501D01*
X30084Y-52152D01*
X30216Y-52514D01*
X30238Y-52604D01*
X34411Y-61475D01*
X33536Y-62599D01*
X32206Y-62863D01*
X30861Y-63762D01*
X29963Y-65106D01*
X29648Y-66692D01*
X29963Y-68277D01*
X30861Y-69622D01*
X32206Y-70520D01*
X33791Y-70835D01*
X35377Y-70520D01*
X35594Y-70375D01*
X42045Y-75003D01*
X42235Y-75089D01*
X43291Y-75795D01*
X44074Y-75951D01*
X44173Y-75998D01*
X48343Y-77074D01*
X48566Y-77087D01*
X49304Y-77234D01*
X50433Y-77009D01*
X50525Y-76997D01*
X50564Y-76984D01*
X50929Y-77248D01*
X51054Y-77321D01*
X51836Y-77677D01*
X56375Y-82216D01*
X61353Y-77238D01*
X60440Y-76325D01*
X60451Y-75055D01*
X61886Y-73672D01*
X61975Y-73585D01*
X61991Y-73570D01*
X62056Y-73503D01*
X62060Y-73482D01*
X62385Y-72996D01*
X62846Y-72688D01*
X62959Y-72565D01*
X64720Y-72530D01*
X66527Y-74337D01*
X66632Y-74407D01*
X66723Y-74467D01*
X66823Y-74511D01*
X67618Y-74862D01*
X74305Y-68176D01*
X74357Y-68107D01*
X74406Y-68042D01*
X74488Y-67900D01*
X74519Y-67825D01*
X74616Y-67865D01*
X75142Y-67339D01*
X74616D01*
Y-67183D01*
X74541Y-66881D01*
X74468Y-66744D01*
X74378Y-66576D01*
X70352Y-62549D01*
X70243Y-61859D01*
X70352Y-61168D01*
X74267Y-57253D01*
X74288Y-57230D01*
X74370Y-57139D01*
X74496Y-56931D01*
X74580Y-56702D01*
X74599Y-56582D01*
X74703Y-55940D01*
X72732Y-53969D01*
X72607Y-52492D01*
X72656Y-52439D01*
X74610Y-50055D01*
X74689Y-49938D01*
X75318Y-48772D01*
X75365Y-48663D01*
X75762Y-47514D01*
X75795Y-47380D01*
X75959Y-46249D01*
X75967Y-46143D01*
X75965Y-46098D01*
X75964Y-46078D01*
X77463Y-44579D01*
X74354Y-41470D01*
X71950Y-37499D01*
X71805Y-36769D01*
X70907Y-35424D01*
X69563Y-34526D01*
X67977Y-34211D01*
X66391Y-34526D01*
X65765Y-34944D01*
X64417Y-34569D01*
X64348Y-34553D01*
X62681Y-34257D01*
X62608Y-34248D01*
X51600Y-33406D01*
X50193Y-31999D01*
X48928Y-33263D01*
X48411Y-33273D01*
X48273Y-33289D01*
X47148Y-33528D01*
X46970Y-33590D01*
X44729Y-34717D01*
X44412Y-35027D01*
X43670Y-36413D01*
X43624Y-36519D01*
X43077Y-38100D01*
X43046Y-38223D01*
X42874Y-39282D01*
X40699Y-41458D01*
X35537Y-40886D01*
X35512Y-40813D01*
X35414Y-40910D01*
X33432Y-38928D01*
X33530Y-38831D01*
X33487Y-38812D01*
X33491Y-37666D01*
X33543Y-34694D01*
X34124Y-33824D01*
X34330Y-32792D01*
X34124Y-31760D01*
X33540Y-30885D01*
X32665Y-30300D01*
X32589Y-30285D01*
X32548Y-30241D01*
X32107Y-28894D01*
X32357Y-28520D01*
X32525Y-27672D01*
X32562Y-27488D01*
X33401Y-26650D01*
X33584Y-26613D01*
X34433Y-26444D01*
X34807Y-26195D01*
X36153Y-26636D01*
X36197Y-26676D01*
X36212Y-26753D01*
X36797Y-27627D01*
X37672Y-28212D01*
X38256Y-28328D01*
X38325Y-28338D01*
X38462Y-28358D01*
X38739Y-28369D01*
X38877Y-28360D01*
X39050Y-28349D01*
X39736Y-28212D01*
X40611Y-27627D01*
X41196Y-26753D01*
X41364Y-25904D01*
X41401Y-25721D01*
X42239Y-24882D01*
X42423Y-24845D01*
X43271Y-24676D01*
X44146Y-24092D01*
X44731Y-23217D01*
X44900Y-22369D01*
X44936Y-22185D01*
X45775Y-21346D01*
X45958Y-21310D01*
X46807Y-21141D01*
X47682Y-20556D01*
X48267Y-19682D01*
X48435Y-18833D01*
X48472Y-18649D01*
X49311Y-17811D01*
X49494Y-17774D01*
X50343Y-17606D01*
X51217Y-17021D01*
X51802Y-16146D01*
X52007Y-15114D01*
X51802Y-14082D01*
X51375Y-13442D01*
X51496Y-11705D01*
X51471Y-11578D01*
X51576Y-11052D01*
X51874Y-10606D01*
X52320Y-10308D01*
X52517Y-10269D01*
X53908Y-9709D01*
X54795Y-9352D01*
X54816Y-9402D01*
X54869Y-9391D01*
X54978Y-9319D01*
X55668Y-8964D01*
X55932Y-8835D01*
X56211Y-8698D01*
X60465Y-6706D01*
X61892Y-7441D01*
X62225Y-9061D01*
X62447Y-11365D01*
X62374Y-13411D01*
X62017Y-15198D01*
X61386Y-16740D01*
X60457Y-18093D01*
X60086Y-18524D01*
X60042Y-18579D01*
X59222Y-19711D01*
X59152Y-19827D01*
X58499Y-21121D01*
X58451Y-21235D01*
X57966Y-22692D01*
X57938Y-22796D01*
X57619Y-24416D01*
X57603Y-24580D01*
X57739Y-25041D01*
X58103Y-25355D01*
X60649Y-26503D01*
X60848Y-26565D01*
X63383Y-27022D01*
X63534Y-27036D01*
X63612Y-27032D01*
X65457Y-26862D01*
X65678Y-27107D01*
X66009Y-28773D01*
X66953Y-30186D01*
X68365Y-31129D01*
X70031Y-31461D01*
X71697Y-31129D01*
X72291Y-30733D01*
X73281Y-30266D01*
X74272Y-30733D01*
X74865Y-31129D01*
X76531Y-31461D01*
X78197Y-31129D01*
X79610Y-30186D01*
X79953D01*
X81365Y-31129D01*
X82926Y-31440D01*
X82765Y-32601D01*
X82762Y-32623D01*
X82684Y-33324D01*
X82682Y-33346D01*
X81248Y-50160D01*
X81463Y-50375D01*
X80927Y-52313D01*
X80877Y-52563D01*
X80827Y-52676D01*
X79138Y-58778D01*
X78128Y-60290D01*
X78466Y-63443D01*
X79138Y-64939D01*
X79616Y-67339D01*
X78552D01*
X78477Y-67950D01*
X78346Y-68579D01*
X78320Y-68663D01*
X78158Y-69154D01*
X78113Y-69250D01*
X78086Y-69302D01*
X79138Y-69738D01*
X77779Y-71772D01*
X67324Y-81954D01*
X66865Y-81495D01*
X58016Y-87160D01*
X56304Y-86950D01*
X55688Y-86816D01*
X53926Y-86264D01*
X52761Y-85779D01*
X52691Y-85753D01*
X50863Y-85174D01*
X50792Y-85155D01*
X50185Y-85020D01*
X39528Y-82637D01*
X39528Y-82637D01*
X27351Y-79909D01*
X26603Y-79742D01*
X26418Y-79721D01*
X26274Y-79733D01*
X24963Y-79958D01*
X21179Y-80257D01*
X19519Y-80235D01*
X15707Y-79831D01*
X14026Y-79496D01*
X11924Y-78974D01*
X9819Y-78240D01*
X4803Y-76242D01*
X4489Y-76182D01*
X4313Y-76200D01*
X1746Y-76744D01*
X898Y-76884D01*
X-2146Y-77208D01*
X-5189Y-77181D01*
X-37781Y-75006D01*
X-40295Y-74736D01*
X-78431Y-69087D01*
X-80913Y-68646D01*
X-107758Y-63081D01*
X-117325Y-46411D01*
X-119098Y-42892D01*
X-120327Y-39474D01*
X-121028Y-36139D01*
X-121207Y-32881D01*
X-120950Y-30469D01*
X-120529Y-30149D01*
X-119641Y-29704D01*
X-118214Y-29987D01*
X-116748Y-29696D01*
X-116197Y-30117D01*
X-115776Y-30668D01*
X-116068Y-32134D01*
X-115737Y-33800D01*
X-114793Y-35212D01*
X-113380Y-36156D01*
X-111714Y-36488D01*
X-110048Y-36156D01*
X-108636Y-35212D01*
X-107692Y-33800D01*
X-107361Y-32134D01*
X-107652Y-30668D01*
X-107232Y-30117D01*
X-106680Y-29696D01*
X-105214Y-29987D01*
X-103548Y-29656D01*
X-102136Y-28712D01*
X-101192Y-27300D01*
X-100861Y-25634D01*
X-101192Y-23968D01*
X-102136Y-22555D01*
X-103548Y-21612D01*
X-105214Y-21280D01*
X-106880Y-21612D01*
X-107474Y-22008D01*
X-108464Y-22475D01*
X-109455Y-22008D01*
X-110048Y-21612D01*
X-111714Y-21280D01*
X-113380Y-21612D01*
X-114793Y-22555D01*
X-115136D01*
X-116548Y-21612D01*
X-116661Y-20593D01*
X-116635Y-20300D01*
X-116597Y-20220D01*
X-115738Y-17691D01*
X-114632Y-15227D01*
X-113264Y-12788D01*
X-111622Y-10360D01*
X-103884Y170D01*
X-98682Y1580D01*
X-88011Y-362D01*
X-87971Y-369D01*
X-84449Y-841D01*
X-84363Y-848D01*
X-81006Y-954D01*
X-80979Y-954D01*
X-80910Y-951D01*
X-78125Y-723D01*
X-77573Y-1771D01*
X-77550Y-1944D01*
X-80424Y-4818D01*
X-80782Y-4748D01*
X-82448Y-5079D01*
X-83860Y-6023D01*
X-84804Y-7435D01*
X-85135Y-9101D01*
X-84804Y-10767D01*
X-83860Y-12180D01*
X-82448Y-13123D01*
X-80782Y-13455D01*
X-79116Y-13123D01*
X-77703Y-12180D01*
X-76759Y-10767D01*
X-76428Y-9101D01*
X-76548Y-8498D01*
X-70894Y-2844D01*
X-72323Y-1414D01*
X-71147Y901D01*
X-68557Y1616D01*
X-67491Y1124D01*
X-67491D01*
X-63713Y-2654D01*
X-57674Y3385D01*
X-60102Y5813D01*
X-59449Y6956D01*
X-57275Y6393D01*
X-52683Y1802D01*
X-48059Y6426D01*
X-54144Y12512D01*
X-54115Y12573D01*
X-53779Y14518D01*
X-53770Y14596D01*
X-53656Y16379D01*
X-53654Y16426D01*
X-53656Y16475D01*
X-53738Y17718D01*
X-52952Y18504D01*
X-54104Y19656D01*
X-54107Y19668D01*
X-54147Y19793D01*
X-54585Y20826D01*
X-54276Y21825D01*
X-53933Y22250D01*
X-53401Y22356D01*
X-52056Y23254D01*
X-51158Y24599D01*
X-50979Y25498D01*
X-49642Y25714D01*
X-42767Y13568D01*
D02*
G37*
G36*
X-47103Y34118D02*
X-46196Y33512D01*
X-45591Y32606D01*
X-33295Y4817D01*
X-22642Y-1469D01*
X-22195Y-1767D01*
X-21897Y-2213D01*
X-21793Y-2740D01*
X-21897Y-3266D01*
X-22195Y-3712D01*
X-22642Y-4010D01*
X-23168Y-4114D01*
X-23694Y-4010D01*
X-34236Y482D01*
X-38478Y4724D01*
X-41461Y13999D01*
X-41501Y14123D01*
X-41565Y14236D01*
X-50753Y30468D01*
X-50966Y31537D01*
X-50753Y32606D01*
X-50148Y33512D01*
X-49241Y34118D01*
X-48172Y34331D01*
X-47103Y34118D01*
D02*
G37*
G36*
X-22714Y14834D02*
X-20418Y10357D01*
X-20506Y9913D01*
X-21400Y8796D01*
X-21583Y8760D01*
X-22432Y8591D01*
X-23307Y8006D01*
X-23891Y7131D01*
X-24097Y6099D01*
X-23891Y5067D01*
X-23307Y4192D01*
X-22432Y3608D01*
X-21400Y3402D01*
X-20368Y3608D01*
X-19994Y3858D01*
X-18648Y3416D01*
X-18603Y3376D01*
X-18588Y3300D01*
X-18004Y2425D01*
X-17129Y1840D01*
X-16097Y1635D01*
X-15065Y1840D01*
X-14190Y2425D01*
X-13605Y3300D01*
X-13436Y4148D01*
X-13400Y4331D01*
X-12561Y5170D01*
X-12378Y5207D01*
X-11529Y5375D01*
X-10654Y5960D01*
X-10070Y6835D01*
X-9901Y7684D01*
X-9864Y7867D01*
X-9026Y8706D01*
X-8842Y8742D01*
X-7994Y8911D01*
X-7119Y9496D01*
X-6534Y10371D01*
X-6365Y11219D01*
X-6329Y11403D01*
X-5490Y12241D01*
X-5307Y12278D01*
X-4458Y12447D01*
X-3583Y13031D01*
X-2999Y13906D01*
X-2830Y14755D01*
X-2793Y14938D01*
X-1955Y15777D01*
X-1771Y15813D01*
X-923Y15982D01*
X-48Y16567D01*
X90Y16773D01*
X5313Y17036D01*
X5403Y17046D01*
X6412Y17205D01*
X7593Y17286D01*
X7924Y15620D01*
X8868Y14207D01*
X10280Y13263D01*
X11492Y13022D01*
X12602Y12089D01*
X12933Y10423D01*
X13877Y9011D01*
X15289Y8067D01*
X16788Y7769D01*
X17218Y7529D01*
X17900Y6847D01*
X17887Y6786D01*
X18219Y5120D01*
X19163Y3707D01*
X20575Y2763D01*
X21790Y2522D01*
X22936Y1777D01*
X23268Y111D01*
X24212Y-1302D01*
X25624Y-2245D01*
X27290Y-2577D01*
X27538Y-2528D01*
X28436Y-3426D01*
X28387Y-3670D01*
X28719Y-5336D01*
X29379Y-6323D01*
X29011Y-7569D01*
X28897Y-7714D01*
X28312Y-7830D01*
X26899Y-8774D01*
X25955Y-10187D01*
X25624Y-11853D01*
X25688Y-12176D01*
X24608Y-13256D01*
X24527Y-13240D01*
X22861Y-13571D01*
X21448Y-14515D01*
X20505Y-15928D01*
X20173Y-17594D01*
X20281Y-18138D01*
X19383Y-19036D01*
X19130Y-18986D01*
X17463Y-19317D01*
X16051Y-20261D01*
X15107Y-21673D01*
X14776Y-23339D01*
X14854Y-23734D01*
X13956Y-24632D01*
X13714Y-24584D01*
X12048Y-24915D01*
X10636Y-25859D01*
X9692Y-27271D01*
X9373Y-28873D01*
X9277Y-29165D01*
X9057Y-29300D01*
X8661Y-29302D01*
X7461Y-28826D01*
X7129Y-27160D01*
X6186Y-25747D01*
X4773Y-24804D01*
X3107Y-24472D01*
X1441Y-24804D01*
X29Y-25747D01*
X-915Y-27160D01*
X-1061Y-27892D01*
X-2455Y-28391D01*
X-2911Y-28017D01*
X-2963Y-27977D01*
X-6066Y-25812D01*
X-6113Y-25782D01*
X-9649Y-23643D01*
X-9942Y-23561D01*
X-10070Y-22921D01*
X-10654Y-22046D01*
X-11529Y-21461D01*
X-12378Y-21293D01*
X-12561Y-21256D01*
X-13400Y-20417D01*
X-13436Y-20234D01*
X-13605Y-19385D01*
X-14190Y-18510D01*
X-15065Y-17926D01*
X-15381Y-17863D01*
X-16772Y-15055D01*
X-16818Y-14974D01*
X-19174Y-11301D01*
X-19243Y-11208D01*
X-21798Y-8214D01*
X-21844Y-8165D01*
X-23328Y-6681D01*
X-23324Y-6633D01*
X-23055Y-5891D01*
X-22775Y-5438D01*
X-22373Y-5358D01*
X-22203Y-5245D01*
X-22136Y-5231D01*
X-22078Y-5193D01*
X-21878Y-5153D01*
X-21432Y-4855D01*
X-21318Y-4685D01*
X-21261Y-4647D01*
X-21223Y-4589D01*
X-21053Y-4475D01*
X-20754Y-4029D01*
X-20715Y-3829D01*
X-20676Y-3771D01*
X-20663Y-3704D01*
X-20549Y-3534D01*
X-20445Y-3008D01*
X-20484Y-2807D01*
X-20471Y-2740D01*
X-20484Y-2672D01*
X-20445Y-2471D01*
X-20549Y-1945D01*
X-20663Y-1775D01*
X-20676Y-1708D01*
X-20715Y-1650D01*
X-20754Y-1450D01*
X-21053Y-1004D01*
X-21223Y-890D01*
X-21261Y-833D01*
X-21318Y-794D01*
X-21432Y-624D01*
X-21878Y-326D01*
X-21918Y-318D01*
X-21943Y-285D01*
X-32217Y5777D01*
X-33449Y8563D01*
X-31162Y9847D01*
X-30813Y10218D01*
X-30099Y11694D01*
X-27013Y17683D01*
X-25758Y17879D01*
X-22714Y14834D01*
D02*
G37*
G36*
X26909Y-22042D02*
X27217Y-22459D01*
X25438Y-27129D01*
X25422Y-27174D01*
X24910Y-28791D01*
X24423Y-29117D01*
X23838Y-29992D01*
X23669Y-30840D01*
X23633Y-31024D01*
X22794Y-31862D01*
X22611Y-31899D01*
X21762Y-32068D01*
X20887Y-32652D01*
X20303Y-33527D01*
X20097Y-34559D01*
X20303Y-35591D01*
X20887Y-36466D01*
X21762Y-37051D01*
X21838Y-37066D01*
X21879Y-37110D01*
X22320Y-38457D01*
X22070Y-38831D01*
X21902Y-39679D01*
X21865Y-39863D01*
X21026Y-40701D01*
X20843Y-40738D01*
X19994Y-40907D01*
X19620Y-41157D01*
X18274Y-40715D01*
X18230Y-40675D01*
X18215Y-40598D01*
X17630Y-39723D01*
X16755Y-39139D01*
X15723Y-38934D01*
X14691Y-39139D01*
X13816Y-39723D01*
X13232Y-40598D01*
X13026Y-41630D01*
X13232Y-42662D01*
X13816Y-43537D01*
X14691Y-44122D01*
X14767Y-44137D01*
X14808Y-44181D01*
X15249Y-45528D01*
X14999Y-45902D01*
X14794Y-46934D01*
X14999Y-47966D01*
X15584Y-48841D01*
X16062Y-49160D01*
X16292Y-49548D01*
X16468Y-50353D01*
X16472Y-50723D01*
X16047Y-51358D01*
X15876Y-52221D01*
X15812Y-52421D01*
X15507Y-55178D01*
X14468Y-56217D01*
X13701Y-55954D01*
X11621Y-54731D01*
X9914Y-53135D01*
X8537Y-51114D01*
X8121Y-50342D01*
X7865Y-48612D01*
X8652Y-47863D01*
X9684Y-47657D01*
X10559Y-47073D01*
X11143Y-46198D01*
X11349Y-45166D01*
X11143Y-44134D01*
X10559Y-43259D01*
X9684Y-42674D01*
X8835Y-42506D01*
X8652Y-42469D01*
X7813Y-41630D01*
X7777Y-41447D01*
X7608Y-40598D01*
X7023Y-39723D01*
X6980Y-39694D01*
X7475Y-38498D01*
X8411Y-38684D01*
X10077Y-38353D01*
X11489Y-37409D01*
X12433Y-35996D01*
X12764Y-34330D01*
X12733Y-34173D01*
X13449Y-33456D01*
X13847Y-33265D01*
X15380Y-32960D01*
X16793Y-32016D01*
X17737Y-30603D01*
X18068Y-28937D01*
X17989Y-28543D01*
X18887Y-27645D01*
X19130Y-27693D01*
X20796Y-27362D01*
X22208Y-26418D01*
X23152Y-25005D01*
X23483Y-23339D01*
X23375Y-22795D01*
X24273Y-21897D01*
X24527Y-21947D01*
X26193Y-21616D01*
X26909Y-22042D01*
D02*
G37*
G36*
X-27945Y-13844D02*
X-27499Y-14142D01*
X-27201Y-14588D01*
X-27096Y-15114D01*
X-27201Y-15640D01*
X-27499Y-16086D01*
X-31332Y-20071D01*
X-33314Y-22053D01*
X-37557Y-17810D01*
X-35575Y-15828D01*
X-28997Y-13844D01*
X-28471Y-13739D01*
X-27945Y-13844D01*
D02*
G37*
G36*
X-57719Y-10667D02*
X-57922Y-11688D01*
X-57607Y-13274D01*
X-56708Y-14618D01*
X-55364Y-15517D01*
X-53778Y-15832D01*
X-52193Y-15517D01*
X-50848Y-14618D01*
X-50779Y-14514D01*
X-50485Y-14409D01*
X-49170Y-14327D01*
X-47783Y-14451D01*
X-46561Y-14746D01*
X-45447Y-15214D01*
X-44407Y-15874D01*
X-43519Y-16546D01*
X-43471Y-16579D01*
X-42330Y-17310D01*
X-42235Y-17362D01*
X-40942Y-17943D01*
X-40895Y-17962D01*
X-38444Y-18867D01*
X-34661Y-22650D01*
X-34565Y-23998D01*
X-34639Y-24254D01*
X-38177Y-27061D01*
X-39151Y-27729D01*
X-39189Y-27745D01*
X-39285Y-27785D01*
X-40292Y-28203D01*
X-40326Y-28214D01*
X-42396Y-28901D01*
X-46898Y-24399D01*
X-57532Y-35034D01*
X-57526Y-35041D01*
X-58160Y-36141D01*
X-65356Y-34225D01*
X-67747Y-31834D01*
X-68791Y-32879D01*
X-70746Y-31983D01*
X-74156Y-29768D01*
X-72933Y-25563D01*
X-71235Y-21667D01*
X-69219Y-18567D01*
X-66863Y-16216D01*
X-66132Y-15645D01*
X-66092Y-15611D01*
X-64744Y-14389D01*
X-64671Y-14312D01*
X-63504Y-12898D01*
X-63444Y-12815D01*
X-62458Y-11208D01*
X-62414Y-11124D01*
X-61793Y-9736D01*
X-59734Y-9635D01*
X-59680Y-9630D01*
X-58614Y-9498D01*
X-57719Y-10667D01*
D02*
G37*
G36*
X59010Y-50202D02*
X65432Y-56625D01*
X64873Y-58673D01*
X64851Y-58790D01*
X64559Y-61568D01*
X64555Y-61645D01*
X64556Y-61683D01*
X64703Y-64555D01*
X64708Y-64609D01*
X64915Y-66247D01*
X63594Y-68930D01*
X58822Y-73703D01*
X57629Y-73515D01*
X57082Y-72967D01*
X53416Y-76634D01*
X52748Y-76477D01*
X51730Y-76013D01*
X50802Y-75343D01*
X49975Y-74474D01*
X54282Y-70167D01*
X50011Y-65896D01*
X48108Y-67799D01*
X47927Y-67855D01*
X46573Y-67538D01*
X45310Y-64997D01*
X47211Y-63096D01*
X46663Y-62549D01*
X46476Y-61357D01*
X50011Y-57821D01*
X57629Y-50202D01*
X58320Y-50094D01*
X59010Y-50202D01*
D02*
G37*
%LPC*%
G36*
X34232Y63796D02*
X32647Y63481D01*
X31302Y62582D01*
X30404Y61238D01*
X30089Y59652D01*
X30404Y58067D01*
X31302Y56722D01*
X32647Y55824D01*
X34232Y55509D01*
X35818Y55824D01*
X37162Y56722D01*
X38061Y58067D01*
X38376Y59652D01*
X38061Y61238D01*
X37162Y62582D01*
X35818Y63481D01*
X34232Y63796D01*
D02*
G37*
G36*
X86100Y42168D02*
X84434Y41837D01*
X83021Y40893D01*
X82078Y39481D01*
X81746Y37815D01*
X82078Y36149D01*
X83021Y34736D01*
X84434Y33792D01*
X86100Y33461D01*
X87766Y33792D01*
X89178Y34736D01*
X90122Y36149D01*
X90453Y37815D01*
X90122Y39481D01*
X89178Y40893D01*
X87766Y41837D01*
X86100Y42168D01*
D02*
G37*
G36*
X61558Y40488D02*
X59972Y40173D01*
X58628Y39274D01*
X57730Y37930D01*
X57414Y36344D01*
X57730Y34759D01*
X58628Y33414D01*
X59972Y32516D01*
X61558Y32201D01*
X63144Y32516D01*
X64488Y33414D01*
X65386Y34759D01*
X65702Y36344D01*
X65386Y37930D01*
X64488Y39274D01*
X63144Y40173D01*
X61558Y40488D01*
D02*
G37*
%LPD*%
D13*
X-77359Y25119D02*
X-70296Y18084D01*
D14*
X16952Y-59772D02*
D03*
X22749Y-53975D02*
D03*
X-90363Y26407D02*
D03*
X-84567Y32203D02*
D03*
X-76092Y12288D02*
D03*
X-70296Y18084D02*
D03*
X-46838Y-18104D02*
D03*
X-41041Y-12308D02*
D03*
X-83156Y19323D02*
D03*
X-77359Y25119D02*
D03*
X-41162Y-2202D02*
D03*
X-35366Y3594D02*
D03*
X-4741Y-59551D02*
D03*
X1055Y-53755D02*
D03*
X-23074Y30620D02*
D03*
X-28870Y24824D02*
D03*
X-26606Y-26800D02*
D03*
X-32402Y-32596D02*
D03*
X-22210Y18109D02*
D03*
X-16414Y23905D02*
D03*
X-40241Y-24737D02*
D03*
X-34444Y-18941D02*
D03*
X-18141Y-35622D02*
D03*
X-23938Y-41418D02*
D03*
X-16595Y-48599D02*
D03*
X-10799Y-42803D02*
D03*
D15*
X65855Y46826D02*
D03*
X74052D02*
D03*
D16*
X-62583Y2255D02*
D03*
X-56786Y-3542D02*
D03*
X-43800Y78145D02*
D03*
X-38003Y72349D02*
D03*
X-75802Y-3974D02*
D03*
X-70006Y-9770D02*
D03*
X-18195Y37193D02*
D03*
X-12399Y31397D02*
D03*
X-88721Y59347D02*
D03*
X-94517Y65143D02*
D03*
X-11669Y44282D02*
D03*
X-5873Y38486D02*
D03*
X49062Y-36907D02*
D03*
X43266Y-31111D02*
D03*
X74251Y-84638D02*
D03*
X68454Y-78842D02*
D03*
X72555Y-45709D02*
D03*
X78351Y-51506D02*
D03*
X-81792Y66553D02*
D03*
X-87588Y72349D02*
D03*
X64009Y-21564D02*
D03*
X58212Y-15768D02*
D03*
X-71424Y75992D02*
D03*
X-77220Y81788D02*
D03*
X-45825Y63408D02*
D03*
X-51621Y69204D02*
D03*
X-35622Y53376D02*
D03*
X-41418Y59172D02*
D03*
X42341Y-43594D02*
D03*
X36545Y-37798D02*
D03*
D17*
X80953Y46727D02*
D03*
Y54924D02*
D03*
X58953Y46727D02*
D03*
Y54924D02*
D03*
X27883Y83245D02*
D03*
Y75048D02*
D03*
X-24676Y66948D02*
D03*
Y75146D02*
D03*
D18*
X-93560Y42867D02*
D03*
X-112362Y24065D02*
D03*
X-120494Y32196D02*
D03*
X-101692Y50998D02*
D03*
D19*
X-63344Y34877D02*
D03*
X-56627Y41595D02*
D03*
X-49909Y48312D02*
D03*
X-68294Y66697D02*
D03*
X-81729Y53262D02*
D03*
D20*
X11530Y83264D02*
D03*
X-10469D02*
D03*
Y67263D02*
D03*
X11530D02*
D03*
D21*
X-17865Y9635D02*
D03*
X-14329Y13170D02*
D03*
X-10793Y16706D02*
D03*
X-7258Y20241D02*
D03*
X-3722Y23777D02*
D03*
X-187Y27313D02*
D03*
X3349Y30848D02*
D03*
X6884Y34383D02*
D03*
X-21400Y6099D02*
D03*
X49311Y-972D02*
D03*
X8652Y-45166D02*
D03*
X26330Y-31024D02*
D03*
X29865Y-27488D02*
D03*
X33401Y-23953D02*
D03*
X36936Y-20417D02*
D03*
X40472Y-16882D02*
D03*
X44007Y-13346D02*
D03*
X52846Y-4507D02*
D03*
X15723Y-41630D02*
D03*
X22794Y-34559D02*
D03*
X28097Y-36327D02*
D03*
X31633Y-32792D02*
D03*
X35168Y-29256D02*
D03*
X38704Y-25721D02*
D03*
X42239Y-22185D02*
D03*
X45775Y-18649D02*
D03*
X49311Y-15114D02*
D03*
X52846Y-11578D02*
D03*
X13955Y-50469D02*
D03*
X17491Y-46934D02*
D03*
X21026Y-43398D02*
D03*
X24562Y-39863D02*
D03*
X-12561Y7867D02*
D03*
X-9026Y11403D02*
D03*
X-5490Y14938D02*
D03*
X-1955Y18474D02*
D03*
X1581Y22009D02*
D03*
X-32007Y-11578D02*
D03*
X13955Y34383D02*
D03*
X-26703Y-6275D02*
D03*
X-23168Y-2740D02*
D03*
X-19632Y796D02*
D03*
X-16097Y4331D02*
D03*
X-28471Y-15114D02*
D03*
X15723Y25545D02*
D03*
X-23168Y-13346D02*
D03*
X21026Y27313D02*
D03*
X19259Y22009D02*
D03*
X-19632Y-16882D02*
D03*
X-21400Y-22185D02*
D03*
X22794Y18474D02*
D03*
X-16097Y-20417D02*
D03*
X-17865Y-25721D02*
D03*
X28097Y20241D02*
D03*
X-12561Y-23953D02*
D03*
X-14329Y-29256D02*
D03*
X31633Y16706D02*
D03*
X-9026Y-27488D02*
D03*
X-10793Y-32792D02*
D03*
X35168Y13170D02*
D03*
X33401Y7867D02*
D03*
X-5490Y-31024D02*
D03*
X-7258Y-36327D02*
D03*
X38704Y9635D02*
D03*
X36936Y4331D02*
D03*
X-1955Y-34559D02*
D03*
X-3722Y-39863D02*
D03*
X42239Y6099D02*
D03*
X40472Y796D02*
D03*
X-187Y-43398D02*
D03*
X45775Y2564D02*
D03*
X44007Y-2740D02*
D03*
X5116Y-41630D02*
D03*
D22*
X10420Y-8043D02*
D03*
D23*
X28858Y49398D02*
D03*
X22578Y44130D02*
D03*
X22551Y56429D02*
D03*
X16271Y51160D02*
D03*
D24*
X99626Y50000D02*
D03*
D25*
X96627Y71000D02*
D03*
D26*
X74053Y-60268D02*
D03*
X70517Y-56732D02*
D03*
X66982Y-53197D02*
D03*
X63446Y-49661D02*
D03*
X59910Y-46125D02*
D03*
X42586Y-63450D02*
D03*
X46122Y-66985D02*
D03*
X49658Y-70521D02*
D03*
X53193Y-74056D02*
D03*
X56729Y-77592D02*
D03*
D27*
X53193Y-49661D02*
D03*
X49658Y-53197D02*
D03*
X46122Y-56732D02*
D03*
X63446Y-74056D02*
D03*
X66982Y-70521D02*
D03*
X70517Y-66985D02*
D03*
D28*
X38795Y32304D02*
D03*
X33526Y38583D02*
D03*
X41502Y47632D02*
D03*
X36233Y53912D02*
D03*
D29*
X73634Y12501D02*
D03*
Y-20189D02*
D03*
X65671Y26471D02*
D03*
X73314Y-9293D02*
D03*
X73634Y1604D02*
D03*
D30*
X75981Y80450D02*
D03*
X45981D02*
D03*
D31*
X60981Y65450D02*
D03*
D32*
X-40009Y-40476D02*
D03*
X-27988Y-52496D02*
D03*
X-35767Y-60275D02*
D03*
X-47787Y-48254D02*
D03*
D33*
X-53744Y7487D02*
D03*
X-46560Y14671D02*
D03*
X-58637Y19564D02*
D03*
D34*
X-48842Y-33089D02*
D03*
X-62270Y-19662D02*
D03*
X-69691Y-40525D02*
D03*
D57*
X3141Y74317D02*
G03*
X2625Y73014I1390J-1303D01*
G01*
Y61514D02*
G03*
X2776Y60770I1905J0D01*
G01*
X55564Y-82144D02*
G03*
X56914Y-82247I811J1724D01*
G01*
X42789Y-76131D02*
G03*
X42794Y-76133I2980J6317D01*
G01*
X29525Y-68660D02*
G03*
X31787Y-70942I4267J1969D01*
G01*
X70081Y-30742D02*
G03*
X72064Y-30121I-50J3635D01*
G01*
X-282Y-62029D02*
G03*
X265Y-60891I-1347J1347D01*
G01*
X-3864Y-64552D02*
G03*
X-2264Y-64011I253J1888D01*
G01*
X-48481Y5107D02*
G03*
X-47975Y6115I-1374J1320D01*
G01*
X-72393Y-49167D02*
G03*
X-72188Y-49242I757J1748D01*
G01*
X17510Y-69338D02*
G03*
X25314Y-64847I3231J3412D01*
G01*
X54071Y-7550D02*
G03*
X54237Y-7478I-1224J3043D01*
G01*
X51622Y-8536D02*
G03*
X49574Y-11349I1224J-3043D01*
G01*
X23492Y-45561D02*
G03*
X24298Y-43627I-2466J2163D01*
G01*
X18204Y-51589D02*
G03*
X17743Y-52635I1432J-1256D01*
G01*
X49909Y-48562D02*
G03*
X49112Y-48473I-605J-1806D01*
G01*
X-64441Y10252D02*
G03*
X-69806Y7831I-1176J-4550D01*
G01*
X-66438Y76777D02*
G03*
X-66964Y78469I-1874J345D01*
G01*
X-68946Y80451D02*
G03*
X-70083Y80997I-1347J-1347D01*
G01*
X-39523Y-47679D02*
G03*
X-38935Y-47543I-132J1900D01*
G01*
X-55411Y34043D02*
G03*
X-54539Y34155I199J1895D01*
G01*
X-45649Y35501D02*
G03*
X-49832Y35933I-2523J-3964D01*
G01*
X-15258Y-40325D02*
G03*
X-15805Y-41463I1347J-1347D01*
G01*
X-12468Y-37863D02*
G03*
X-13277Y-38344I539J-1827D01*
G01*
X44421Y-71161D02*
G03*
X46373Y-71620I1347J1347D01*
G01*
X38034Y-64614D02*
G03*
X38411Y-65150I1724J811D01*
G01*
X31685Y-50900D02*
G03*
X31996Y-51777I4563J1123D01*
G01*
X34067Y-42257D02*
G03*
X35205Y-42803I1347J1347D01*
G01*
X31528Y-38895D02*
G03*
X32085Y-40275I1905J-33D01*
G01*
X61611Y-41950D02*
G03*
X60030Y-41406I-1347J-1347D01*
G01*
X64545Y-46377D02*
G03*
X64086Y-44425I-1806J605D01*
G01*
X-12136Y-51077D02*
G03*
X-11590Y-49939I-1347J1347D01*
G01*
X-15636Y-53609D02*
G03*
X-14118Y-53058I171J1897D01*
G01*
X78380Y-1470D02*
G03*
X79194Y573I-4746J3074D01*
G01*
X12449Y-41827D02*
G03*
X12493Y-42202I3274J197D01*
G01*
X62612Y-39523D02*
G03*
X61001Y-38914I-2348J-3774D01*
G01*
X26918Y37839D02*
G03*
X26944Y37967I-1853J443D01*
G01*
X22938Y24647D02*
G03*
X24216Y26549I-1911J2666D01*
G01*
X-29163Y69540D02*
G03*
X-29581Y68350I1487J-1191D01*
G01*
Y65547D02*
G03*
X-28433Y63799I1905J0D01*
G01*
X48828Y-75194D02*
G03*
X49909Y-75156I476J1845D01*
G01*
X43177Y-73425D02*
G03*
X44658Y-74117I2591J3612D01*
G01*
X51176Y-91779D02*
G03*
X50000Y-91571I-1176J-3221D01*
G01*
X-130000D02*
G03*
X-131176Y-91779I0J-3429D01*
G01*
X79497Y-72723D02*
G03*
X81277Y-69318I-6152J5384D01*
G01*
X89905Y-34824D02*
G03*
X89799Y-35170I3221J-1176D01*
G01*
X-123663Y34852D02*
G03*
X-124599Y32691I3169J-2656D01*
G01*
X-92047Y72566D02*
G03*
X-92160Y72442I1347J-1347D01*
G01*
X-87740Y76870D02*
G03*
X-87805Y76809I1282J-1409D01*
G01*
X-76226Y86800D02*
G03*
X-77372Y86309I137J-1900D01*
G01*
X-9754Y91580D02*
G03*
X-8824Y91779I-246J3420D01*
G01*
X18840Y60959D02*
G03*
X19066Y61173I-310J554D01*
G01*
X54292Y-70772D02*
G03*
X54350Y-70559I-1806J605D01*
G01*
X58811Y-49410D02*
G03*
X58753Y-49623I1806J-605D01*
G01*
X-48694Y40761D02*
G03*
X-47148Y41308I199J1895D01*
G01*
X-42905Y45551D02*
G03*
X-42858Y45600I-1347J1347D01*
G01*
X-38510Y-29657D02*
G03*
X-37926Y-29342I-601J1808D01*
G01*
X-27614Y-21787D02*
G03*
X-28920Y-22196I-122J-1901D01*
G01*
X-40009Y-40476D02*
X-32402Y-32596D01*
X11530Y83264D02*
X27883Y83245D01*
X3141Y74317D02*
X11530Y83264D01*
X2625Y61514D02*
Y73014D01*
X2776Y60770D02*
X13955Y34383D01*
X43266Y-31111D02*
X58212Y-15768D01*
X-187Y-43398D02*
X1055Y-53755D01*
X56914Y-82247D02*
X68454Y-78842D01*
X42794Y-76133D02*
X55564Y-82144D01*
X31787Y-70942D02*
X42789Y-76131D01*
X22749Y-53975D02*
X29525Y-68660D01*
X-41041Y-12308D02*
X-32007Y-11578D01*
X76531Y-27107D02*
X78351Y-51506D01*
X-56786Y-3542D02*
X-41041Y-12308D01*
X72064Y-30121D02*
X76531Y-27107D01*
X43266Y-31111D02*
X70081Y-30742D01*
X265Y-60891D02*
X1055Y-53755D01*
X-2264Y-64011D02*
X-282Y-62029D01*
X-35767Y-60275D02*
X-3864Y-64552D01*
X-187Y-43398D02*
X5116Y-41630D01*
X-105214Y-25634D02*
X-70006Y-9770D01*
X-54987Y26184D02*
X-46560Y14671D01*
X-47975Y6115D02*
X-46560Y14671D01*
X-56786Y-3542D02*
X-48481Y5107D01*
X-111714Y-32134D02*
X-72393Y-49167D01*
X-72188Y-49242D02*
X-35767Y-60275D01*
X1055Y-53755D02*
X17510Y-69338D01*
X22749Y-53975D02*
X25314Y-64847D01*
X-88721Y59347D02*
X-81792Y66553D01*
X-101692Y50998D02*
X-88721Y59347D01*
X-49909Y48312D02*
X-41418Y59172D01*
X-45825Y63408D02*
X-38003Y72349D01*
X-45825Y63408D02*
X-41418Y59172D01*
X54237Y-7478D02*
X73634Y1604D01*
X51622Y-8535D02*
X54071Y-7550D01*
X49311Y-15114D02*
X49574Y-11349D01*
X16952Y-59772D02*
X20741Y-65927D01*
X24298Y-43627D02*
X24562Y-39863D01*
X18204Y-51589D02*
X23492Y-45561D01*
X16952Y-59772D02*
X17743Y-52635D01*
X49909Y-48562D02*
X53193Y-49661D01*
X36248Y-49777D02*
X49112Y-48473D01*
X-70296Y18084D02*
X-58637Y19564D01*
X-93560Y42867D02*
X-81729Y53262D01*
X-93560Y42867D02*
X-84567Y32203D01*
X-80782Y-9101D02*
X-75802Y-3974D01*
X-74730Y-35546D02*
X-69691Y-40525D01*
X-64441Y10252D02*
X-53744Y7487D01*
X-75802Y-3974D02*
X-69806Y7831D01*
X-10469Y67263D02*
X-775Y60425D01*
X6884Y34383D01*
X-24676Y66948D02*
X-10469Y67263D01*
X-18141Y-35622D02*
X-14329Y-29256D01*
X-68294Y66697D02*
X-61867Y73812D01*
X-23073Y30620D02*
X-16414Y23905D01*
X-31412Y47813D02*
X-23073Y30620D01*
X-68294Y66697D02*
X-66438Y76777D01*
X-68946Y80451D02*
X-66964Y78469D01*
X-77220Y81788D02*
X-70084Y80997D01*
X-38935Y-47543D02*
X-23938Y-41418D01*
X-47787Y-48254D02*
X-39523Y-47679D01*
X-26606Y-26800D02*
X-17865Y-25721D01*
X-28870Y24824D02*
X-22210Y18109D01*
X-63344Y34877D02*
X-55411Y34043D01*
X-54539Y34155D02*
X-49832Y35933D01*
X-45649Y35501D02*
X-28870Y24824D01*
X-22210Y18109D02*
X-17865Y9635D01*
X52846Y-4507D02*
X73634Y12501D01*
X-87588Y72349D02*
X-71424Y75992D01*
X-16595Y-48599D02*
X-15805Y-41463D01*
X-15258Y-40325D02*
X-13277Y-38344D01*
X-12468Y-37863D02*
X-7258Y-36327D01*
X46373Y-71620D02*
X49658Y-70521D01*
X38411Y-65150D02*
X44421Y-71161D01*
X31996Y-51777D02*
X38034Y-64614D01*
X28097Y-36327D02*
X31685Y-50900D01*
X49311Y-972D02*
X65671Y26471D01*
X35205Y-42803D02*
X42341Y-43594D01*
X32085Y-40275D02*
X34067Y-42257D01*
X31528Y-38895D02*
X31633Y-32792D01*
X42341Y-43594D02*
X60030Y-41406D01*
X61611Y-41950D02*
X64086Y-44425D01*
X63446Y-49661D02*
X64545Y-46377D01*
X-11590Y-49939D02*
X-10799Y-42803D01*
X-14118Y-53058D02*
X-12136Y-51077D01*
X-27988Y-52496D02*
X-15636Y-53609D01*
X73314Y-9293D02*
X78380Y-1470D01*
X79194Y573D02*
X86100Y37815D01*
X-90363Y26407D02*
X-83156Y19323D01*
X-12947Y-58270D02*
X-4741Y-59551D01*
X-46838Y-18104D02*
X-40241Y-24737D01*
X-18195Y37193D02*
X-11669Y44282D01*
X10420Y-8043D02*
X12449Y-41827D01*
X12493Y-42202D02*
X13955Y-50469D01*
X-62637Y47605D02*
X-56627Y41595D01*
X62612Y-39523D02*
X72555Y-45709D01*
X49062Y-36907D02*
X61001Y-38914D01*
X-83156Y19323D02*
X-76092Y12288D01*
X72582Y37362D02*
X86100Y37815D01*
X34232Y59652D02*
X36233Y53912D01*
X36371Y21478D02*
X51761Y33152D01*
X-19632Y796D02*
X10420Y-8043D01*
X26944Y37967D02*
X28858Y49398D01*
X24216Y26549D02*
X26918Y37839D01*
X19259Y22009D02*
X22938Y24647D01*
X-29163Y69540D02*
X-24676Y75146D01*
X-29581Y65547D02*
Y68350D01*
X-28433Y63799D02*
X-5580Y53905D01*
X49909Y-75156D02*
X53193Y-74056D01*
X44658Y-74118D02*
X48828Y-75194D01*
X33791Y-66692D02*
X43177Y-73425D01*
X-65617Y5703D02*
X-62583Y2255D01*
X-41162Y-2202D02*
X-33629Y-5240D01*
X51176Y-91779D02*
X60000Y-95000D01*
X-130000Y-91571D02*
X50000D01*
X-140000Y-95000D02*
X-131176Y-91779D01*
X-62270Y-19662D02*
X-40241Y-24737D01*
X10420Y-8043D02*
X19259Y22009D01*
X60000Y-95000D02*
X79497Y-72723D01*
X81277Y-69318D02*
X89799Y-35170D01*
X89905Y-34824D02*
X93126Y-26000D01*
X-62270Y-19662D02*
X-53778Y-11688D01*
X-140000Y-95000D02*
X-124599Y32691D01*
X-123663Y34852D02*
X-92160Y72442D01*
X-92047Y72566D02*
X-87805Y76809D01*
X-87740Y76870D02*
X-77372Y86309D01*
X-76226Y86800D02*
X-9754Y91580D01*
X-8824Y91779D02*
X0Y95000D01*
X67977Y-38354D02*
X72555Y-45709D01*
X19066Y61173D02*
X27883Y75048D01*
X11599Y56916D02*
X18840Y60959D01*
X-112362Y24065D02*
X-90363Y26407D01*
X64009Y-21564D02*
X73314Y-9293D01*
X53193Y-74056D02*
X54292Y-70772D01*
X54350Y-70559D02*
X58753Y-49623D01*
X58811Y-49410D02*
X59910Y-46125D01*
X58953Y54924D02*
X65747Y55036D01*
X-56627Y41595D02*
X-48694Y40761D01*
X-47148Y41308D02*
X-42905Y45551D01*
X-42858Y45600D02*
X-35622Y53376D01*
X51761Y33152D02*
X61558Y36344D01*
X22551Y56429D02*
X27883Y75048D01*
X-53778Y-11688D02*
X-46838Y-18104D01*
X61558Y36344D02*
X72582Y37362D01*
X-48842Y-33089D02*
X-38510Y-29657D01*
X-37926Y-29342D02*
X-28920Y-22196D01*
X-27614Y-21787D02*
X-21400Y-22185D01*
D58*
X76829Y-68781D02*
G03*
X77116Y-67339I-3483J1443D01*
G01*
X49049Y57051D02*
G03*
X48497Y56444I2496J-2825D01*
G01*
X47655Y39181D02*
G03*
X47275Y38904I4105J-6029D01*
G01*
X74060Y46852D02*
X81057Y46901D01*
X87056Y48229D01*
X92771Y50040D01*
X33490Y38663D02*
X42116Y47674D01*
X48497Y56444D01*
X49049Y57051D02*
X60352Y67039D01*
X58779Y46757D02*
X65827Y46843D01*
X38713Y32226D02*
X47275Y38904D01*
X47655Y39181D02*
X58779Y46757D01*
X145626Y28000D02*
Y71000D01*
X119226Y28000D02*
X145626D01*
X119226Y3000D02*
Y28000D01*
Y3000D02*
X145626D01*
Y-19000D02*
Y3000D01*
X119226Y-19000D02*
X145626D01*
X119226Y-44000D02*
Y-19000D01*
Y-44000D02*
X145626D01*
Y-66000D02*
Y-44000D01*
X103726Y-66000D02*
X145626D01*
D59*
X-65937Y57648D02*
G03*
X-65532Y57788I-942J3392D01*
G01*
X-81729Y53262D02*
X-65937Y57648D01*
D60*
X53445Y52163D02*
D03*
X93126Y94000D02*
D03*
Y84000D02*
D03*
Y74000D02*
D03*
Y64000D02*
D03*
Y34000D02*
D03*
Y-26000D02*
D03*
Y-36000D02*
D03*
Y-46000D02*
D03*
Y-56000D02*
D03*
Y-66000D02*
D03*
Y-76000D02*
D03*
Y-86000D02*
D03*
X-150000Y-95000D02*
D03*
X-140000D02*
D03*
X-130000D02*
D03*
X-120000D02*
D03*
X-110000D02*
D03*
X-100000D02*
D03*
X-90000D02*
D03*
X-80000D02*
D03*
X-70000D02*
D03*
X-60000D02*
D03*
X-50000D02*
D03*
X-40000D02*
D03*
X-30000D02*
D03*
X-20000D02*
D03*
X-10000D02*
D03*
X0D02*
D03*
X10000D02*
D03*
X20000D02*
D03*
X30000D02*
D03*
X40000D02*
D03*
X50000D02*
D03*
X60000D02*
D03*
X70000D02*
D03*
X80000D02*
D03*
X-150000Y-85000D02*
D03*
Y-75000D02*
D03*
Y-65000D02*
D03*
Y-55000D02*
D03*
Y-45000D02*
D03*
Y-35000D02*
D03*
Y-25000D02*
D03*
Y-15000D02*
D03*
Y-5000D02*
D03*
Y5000D02*
D03*
Y15000D02*
D03*
Y25000D02*
D03*
Y35000D02*
D03*
Y45000D02*
D03*
Y55000D02*
D03*
Y65000D02*
D03*
Y75000D02*
D03*
Y85000D02*
D03*
Y95000D02*
D03*
X-140000D02*
D03*
X-130000D02*
D03*
X-120000D02*
D03*
X-110000D02*
D03*
X-100000D02*
D03*
X-90000D02*
D03*
X-80000D02*
D03*
X-70000D02*
D03*
X-60000D02*
D03*
X-50000D02*
D03*
X-40000D02*
D03*
X-30000D02*
D03*
X-20000D02*
D03*
X-10000D02*
D03*
X0D02*
D03*
X10000D02*
D03*
X20000D02*
D03*
X30000D02*
D03*
X40000D02*
D03*
X50000D02*
D03*
X60000D02*
D03*
X70000D02*
D03*
X80000D02*
D03*
X-53778Y-11688D02*
D03*
X72882Y55377D02*
D03*
X-33629Y-5240D02*
D03*
X36371Y21478D02*
D03*
X33791Y-66692D02*
D03*
X-65617Y5703D02*
D03*
X11599Y56916D02*
D03*
X36248Y-49777D02*
D03*
X61558Y36344D02*
D03*
X34232Y59652D02*
D03*
X-3960Y43818D02*
D03*
X22300Y38743D02*
D03*
X67977Y-38354D02*
D03*
X20741Y-65927D02*
D03*
X65747Y55036D02*
D03*
X-54987Y26184D02*
D03*
X51761Y33152D02*
D03*
X-48172Y31537D02*
D03*
X91007Y57384D02*
D03*
D61*
X76531Y-27107D02*
D03*
X70031D02*
D03*
X86100Y37815D02*
D03*
X13714Y-28937D02*
D03*
X-105214Y-25634D02*
D03*
X27290Y1777D02*
D03*
X8411Y-34330D02*
D03*
X3107Y-28826D02*
D03*
X83031Y-27107D02*
D03*
X-74730Y-35546D02*
D03*
X24527Y-17594D02*
D03*
X-61867Y73812D02*
D03*
X22241Y6786D02*
D03*
X-111714Y-25634D02*
D03*
X19130Y-23339D02*
D03*
X-12947Y-58270D02*
D03*
X-111714Y-32134D02*
D03*
X29978Y-11853D02*
D03*
X32741Y-3670D02*
D03*
X-118214Y-25634D02*
D03*
X-80782Y-9101D02*
D03*
X-31412Y47813D02*
D03*
X-5580Y53905D02*
D03*
X11946Y17286D02*
D03*
X-62637Y47605D02*
D03*
X16955Y12089D02*
D03*
X72582Y37362D02*
D03*
M02*
