G04*
G04 #@! TF.GenerationSoftware,Altium Limited,Altium Designer,24.8.2 (39)*
G04*
G04 Layer_Physical_Order=2*
G04 Layer_Color=16711680*
%FSLAX44Y44*%
%MOMM*%
G71*
G04*
G04 #@! TF.SameCoordinates,51F5D0A7-D834-435B-83A4-D3E02903F5C0*
G04*
G04*
G04 #@! TF.FilePolarity,Positive*
G04*
G01*
G75*
%ADD10C,0.2540*%
%ADD57C,0.1270*%
%ADD60C,0.5588*%
%ADD61C,0.6000*%
%ADD62C,0.3500*%
%ADD63R,4.1500X4.2000*%
%ADD64C,7.0000*%
G36*
X99126Y22665D02*
X98020Y22270D01*
X97856Y22270D01*
X97003D01*
X96750Y22375D01*
X55250D01*
X54997Y22270D01*
X53980D01*
Y21253D01*
X53875Y21000D01*
Y-21000D01*
X53980Y-21253D01*
Y-22270D01*
X54860D01*
X54973Y-22346D01*
X65641Y-24543D01*
X66009Y-25441D01*
X65678Y-27107D01*
X66009Y-28773D01*
X66953Y-30186D01*
X68365Y-31129D01*
X70031Y-31461D01*
X71697Y-31129D01*
X72305Y-30724D01*
X72567Y-30600D01*
X73646Y-30371D01*
X74619Y-31022D01*
X74740Y-31046D01*
X74865Y-31129D01*
X75013Y-31159D01*
X75115Y-31227D01*
X76263Y-31455D01*
X76384Y-31431D01*
X76531Y-31461D01*
X76679Y-31431D01*
X76799Y-31455D01*
X77948Y-31227D01*
X78050Y-31159D01*
X78197Y-31129D01*
X78323Y-31046D01*
X78443Y-31022D01*
X79416Y-30371D01*
X80610Y-30625D01*
X81365Y-31129D01*
X83031Y-31461D01*
X84697Y-31129D01*
X86110Y-30186D01*
X87053Y-28773D01*
X87385Y-27107D01*
X87053Y-25441D01*
X87445Y-24466D01*
X97047Y-22342D01*
X97150Y-22270D01*
X97856D01*
X98020Y-22270D01*
X99126Y-22665D01*
Y-97410D01*
X-152410D01*
Y97410D01*
X99126D01*
Y22665D01*
D02*
G37*
G36*
X96750Y-21000D02*
X82383Y-24178D01*
X82149Y-24230D01*
X81702Y-24407D01*
X81290Y-24652D01*
X80922Y-24961D01*
X80607Y-25323D01*
X80354Y-25732D01*
X80262Y-25953D01*
X79303Y-28255D01*
X78653Y-29228D01*
X77679Y-29879D01*
X76531Y-30107D01*
X75383Y-29879D01*
X74410Y-29228D01*
X73760Y-28255D01*
X72800Y-25953D01*
X72707Y-25728D01*
X72449Y-25314D01*
X72128Y-24948D01*
X71752Y-24637D01*
X71330Y-24392D01*
X70875Y-24218D01*
X70636Y-24169D01*
X55250Y-21000D01*
Y21000D01*
X96750D01*
Y-21000D01*
D02*
G37*
%LPC*%
G36*
X72882Y59520D02*
X71296Y59205D01*
X69952Y58307D01*
X69906Y58239D01*
X68345Y58188D01*
X67333Y58864D01*
X65747Y59180D01*
X64162Y58864D01*
X62817Y57966D01*
X61919Y56622D01*
X61604Y55036D01*
X61919Y53450D01*
X62817Y52106D01*
X64162Y51208D01*
X65747Y50893D01*
X67333Y51208D01*
X68677Y52106D01*
X68723Y52174D01*
X70284Y52225D01*
X71296Y51548D01*
X72882Y51233D01*
X74468Y51548D01*
X75812Y52447D01*
X76710Y53791D01*
X77025Y55377D01*
X76710Y56962D01*
X75812Y58307D01*
X74468Y59205D01*
X72882Y59520D01*
D02*
G37*
G36*
X34232Y63796D02*
X32647Y63481D01*
X31302Y62582D01*
X30404Y61238D01*
X30089Y59652D01*
X30404Y58067D01*
X31302Y56722D01*
X32647Y55824D01*
X34232Y55509D01*
X35818Y55824D01*
X37162Y56722D01*
X38061Y58067D01*
X38376Y59652D01*
X38061Y61238D01*
X37162Y62582D01*
X35818Y63481D01*
X34232Y63796D01*
D02*
G37*
G36*
X91007Y61528D02*
X89421Y61212D01*
X88077Y60314D01*
X87179Y58970D01*
X86863Y57384D01*
X87179Y55798D01*
X88077Y54454D01*
X89421Y53556D01*
X91007Y53240D01*
X92593Y53556D01*
X93937Y54454D01*
X94835Y55798D01*
X95150Y57384D01*
X94835Y58970D01*
X93937Y60314D01*
X92593Y61212D01*
X91007Y61528D01*
D02*
G37*
G36*
X11599Y61060D02*
X10014Y60745D01*
X8669Y59847D01*
X7771Y58502D01*
X7455Y56916D01*
X7771Y55331D01*
X8669Y53987D01*
X10014Y53088D01*
X11599Y52773D01*
X13185Y53088D01*
X14529Y53987D01*
X15427Y55331D01*
X15743Y56916D01*
X15427Y58502D01*
X14529Y59847D01*
X13185Y60745D01*
X11599Y61060D01*
D02*
G37*
G36*
X-5580Y58258D02*
X-7246Y57927D01*
X-8659Y56983D01*
X-9602Y55571D01*
X-9934Y53905D01*
X-9602Y52238D01*
X-8659Y50826D01*
X-7246Y49882D01*
X-5580Y49551D01*
X-3914Y49882D01*
X-2502Y50826D01*
X-1558Y52238D01*
X-1227Y53905D01*
X-1558Y55571D01*
X-2502Y56983D01*
X-3914Y57927D01*
X-5580Y58258D01*
D02*
G37*
G36*
X53445Y56307D02*
X51859Y55991D01*
X50515Y55093D01*
X49616Y53749D01*
X49301Y52163D01*
X49616Y50577D01*
X50515Y49233D01*
X51859Y48335D01*
X53445Y48019D01*
X55030Y48335D01*
X56375Y49233D01*
X57273Y50577D01*
X57588Y52163D01*
X57273Y53749D01*
X56375Y55093D01*
X55030Y55991D01*
X53445Y56307D01*
D02*
G37*
G36*
X-62637Y51959D02*
X-64303Y51627D01*
X-65715Y50683D01*
X-66659Y49271D01*
X-66990Y47605D01*
X-66659Y45939D01*
X-65715Y44527D01*
X-64303Y43583D01*
X-62637Y43251D01*
X-60971Y43583D01*
X-59558Y44527D01*
X-58615Y45939D01*
X-58283Y47605D01*
X-58615Y49271D01*
X-59558Y50683D01*
X-60971Y51627D01*
X-62637Y51959D01*
D02*
G37*
G36*
X-61867Y78166D02*
X-63533Y77834D01*
X-64945Y76891D01*
X-65889Y75478D01*
X-66220Y73812D01*
X-65889Y72146D01*
X-64945Y70734D01*
X-63533Y69790D01*
X-61867Y69458D01*
X-60201Y69790D01*
X-60170Y69810D01*
X-35568Y48807D01*
X-35765Y47813D01*
X-35434Y46146D01*
X-34490Y44734D01*
X-33189Y43864D01*
X-33158Y43521D01*
X-33715Y42474D01*
X-35343Y42120D01*
X-35372Y42100D01*
X-35407Y42104D01*
X-37017Y41673D01*
X-37027Y41665D01*
X-37039Y41667D01*
X-50592Y37786D01*
X-50763Y37650D01*
X-50977Y37608D01*
X-52707Y36451D01*
X-52851Y36237D01*
X-53069Y36098D01*
X-58087Y28950D01*
X-58091Y28933D01*
X-58105Y28924D01*
X-58711Y28017D01*
X-58737Y27887D01*
X-58815Y27770D01*
X-58842Y27633D01*
X-58916Y27522D01*
X-58929Y27459D01*
X-100830Y11561D01*
X-101875Y12282D01*
Y21000D01*
X-101980Y21253D01*
Y22270D01*
X-102997D01*
X-103250Y22375D01*
X-144750D01*
X-145003Y22270D01*
X-146020D01*
Y21253D01*
X-146125Y21000D01*
Y-21000D01*
X-146020Y-21253D01*
Y-22270D01*
X-145043D01*
X-144834Y-22372D01*
X-123458Y-23684D01*
X-122445Y-25018D01*
X-122568Y-25634D01*
X-122236Y-27300D01*
X-121293Y-28712D01*
X-119880Y-29656D01*
X-118214Y-29987D01*
X-117359Y-29817D01*
X-116089Y-30760D01*
Y-32134D01*
X-116048Y-32232D01*
X-116039Y-32282D01*
X-116062Y-32402D01*
X-115834Y-33550D01*
X-115766Y-33652D01*
X-115737Y-33800D01*
X-115653Y-33925D01*
X-115629Y-34046D01*
X-114979Y-35019D01*
X-114876Y-35087D01*
X-114793Y-35212D01*
X-114668Y-35296D01*
X-114599Y-35398D01*
X-113626Y-36049D01*
X-113506Y-36072D01*
X-113380Y-36156D01*
X-113233Y-36186D01*
X-113131Y-36254D01*
X-111982Y-36482D01*
X-111862Y-36458D01*
X-111714Y-36488D01*
X-111567Y-36458D01*
X-111446Y-36482D01*
X-110298Y-36254D01*
X-110196Y-36186D01*
X-110048Y-36156D01*
X-109923Y-36072D01*
X-109803Y-36049D01*
X-108829Y-35398D01*
X-108761Y-35296D01*
X-108636Y-35212D01*
X-108552Y-35087D01*
X-108450Y-35019D01*
X-107800Y-34046D01*
X-107776Y-33925D01*
X-107692Y-33800D01*
X-107663Y-33652D01*
X-107594Y-33550D01*
X-107366Y-32402D01*
X-107390Y-32281D01*
X-107380Y-32232D01*
X-107340Y-32134D01*
Y-30760D01*
X-106070Y-29817D01*
X-105214Y-29987D01*
X-103548Y-29656D01*
X-102136Y-28712D01*
X-101192Y-27300D01*
X-100861Y-25634D01*
X-101192Y-23968D01*
X-101587Y-23377D01*
X-101980Y-22270D01*
X-101919Y-21346D01*
X-101944Y-21167D01*
X-101875Y-21000D01*
Y5624D01*
X-57067Y22625D01*
X-56820Y22460D01*
X-56689Y22434D01*
X-56572Y22356D01*
X-56435Y22329D01*
X-56324Y22255D01*
X-55255Y22042D01*
X-55124Y22068D01*
X-54987Y22041D01*
X-54849Y22068D01*
X-54718Y22042D01*
X-53649Y22255D01*
X-53538Y22329D01*
X-53401Y22356D01*
X-53284Y22434D01*
X-53154Y22460D01*
X-52247Y23066D01*
X-52173Y23177D01*
X-52056Y23254D01*
X-51979Y23371D01*
X-51868Y23445D01*
X-51262Y24352D01*
X-51236Y24482D01*
X-51158Y24599D01*
X-51131Y24736D01*
X-51057Y24847D01*
X-50844Y25916D01*
X-50870Y26047D01*
X-50863Y26085D01*
X-50818Y26196D01*
X-50825Y27060D01*
X-49560Y27669D01*
X-48172Y27393D01*
X-46586Y27709D01*
X-45242Y28607D01*
X-44581Y29596D01*
X-38155Y32010D01*
X-36967Y32383D01*
X-36595Y32545D01*
X-35412Y32963D01*
X-35376Y32977D01*
X-35250Y33025D01*
X-34634Y33258D01*
X-33830Y33468D01*
X-33830Y33468D01*
X-33463Y33589D01*
X-33042Y33726D01*
X-32227Y33897D01*
X-32226Y33897D01*
X-31704Y34041D01*
X-31429Y34117D01*
X-30604Y34249D01*
X-30568Y34257D01*
X-29989Y34388D01*
X-29798Y34432D01*
X-28967Y34523D01*
X-28929Y34529D01*
X-28278Y34646D01*
X-28159Y34667D01*
X-27322Y34716D01*
X-27321Y34716D01*
X-26361Y34821D01*
X-26057Y34853D01*
X-25263Y34890D01*
X-24000Y34873D01*
X-24000Y34872D01*
X-24000Y34873D01*
X-22763Y34949D01*
X-3987Y34925D01*
X-3972Y34909D01*
X-3960Y34908D01*
X-3920Y34913D01*
X-3709Y34928D01*
X-2716Y34956D01*
X19704Y35590D01*
X20714Y34915D01*
X22300Y34600D01*
X23885Y34915D01*
X25230Y35813D01*
X26128Y37158D01*
X26443Y38743D01*
X26128Y40329D01*
X25230Y41673D01*
X23885Y42572D01*
X22300Y42887D01*
X20714Y42572D01*
X19475Y41744D01*
X659Y41213D01*
X488Y41390D01*
X35Y42139D01*
X-42Y42463D01*
X-31Y42481D01*
X182Y43550D01*
X156Y43680D01*
X183Y43818D01*
X156Y43955D01*
X182Y44086D01*
X-31Y45155D01*
X-105Y45266D01*
X-132Y45404D01*
X-210Y45520D01*
X-236Y45651D01*
X-842Y46557D01*
X-952Y46631D01*
X-1030Y46748D01*
X-1147Y46826D01*
X-1221Y46936D01*
X-2127Y47542D01*
X-2258Y47568D01*
X-2375Y47646D01*
X-2512Y47674D01*
X-2623Y47748D01*
X-3692Y47960D01*
X-3823Y47934D01*
X-3960Y47962D01*
X-4085Y47937D01*
X-4212Y47963D01*
X-27775Y43580D01*
X-28266Y44594D01*
X-28307Y44773D01*
X-27389Y46146D01*
X-27058Y47813D01*
X-27389Y49479D01*
X-28333Y50891D01*
X-29746Y51835D01*
X-31412Y52166D01*
X-33078Y51835D01*
X-33108Y51815D01*
X-57711Y72818D01*
X-57513Y73812D01*
X-57844Y75478D01*
X-58788Y76891D01*
X-60201Y77834D01*
X-61867Y78166D01*
D02*
G37*
G36*
X86100Y42168D02*
X84434Y41837D01*
X83021Y40893D01*
X82078Y39481D01*
X81746Y37815D01*
X82078Y36149D01*
X83021Y34736D01*
X84434Y33792D01*
X86100Y33461D01*
X87766Y33792D01*
X89178Y34736D01*
X90122Y36149D01*
X90453Y37815D01*
X90122Y39481D01*
X89178Y40893D01*
X87766Y41837D01*
X86100Y42168D01*
D02*
G37*
G36*
X72582Y41716D02*
X70916Y41384D01*
X69503Y40441D01*
X68560Y39028D01*
X68228Y37362D01*
X68560Y35696D01*
X69503Y34284D01*
X70916Y33340D01*
X72582Y33008D01*
X74248Y33340D01*
X75660Y34284D01*
X76604Y35696D01*
X76936Y37362D01*
X76604Y39028D01*
X75660Y40441D01*
X74248Y41384D01*
X72582Y41716D01*
D02*
G37*
G36*
X61558Y40488D02*
X59972Y40173D01*
X58628Y39274D01*
X57730Y37930D01*
X57414Y36344D01*
X57730Y34759D01*
X58628Y33414D01*
X59972Y32516D01*
X61558Y32201D01*
X63144Y32516D01*
X64488Y33414D01*
X65386Y34759D01*
X65702Y36344D01*
X65386Y37930D01*
X64488Y39274D01*
X63144Y40173D01*
X61558Y40488D01*
D02*
G37*
G36*
X51761Y37296D02*
X50175Y36981D01*
X48830Y36082D01*
X47932Y34738D01*
X47617Y33152D01*
X47932Y31567D01*
X48830Y30222D01*
X50175Y29324D01*
X51761Y29009D01*
X53346Y29324D01*
X54690Y30222D01*
X55589Y31567D01*
X55904Y33152D01*
X55589Y34738D01*
X54690Y36082D01*
X53346Y36981D01*
X51761Y37296D01*
D02*
G37*
G36*
X36371Y25622D02*
X34785Y25306D01*
X33441Y24408D01*
X32542Y23064D01*
X32227Y21478D01*
X32542Y19892D01*
X33441Y18548D01*
X34785Y17650D01*
X36371Y17335D01*
X37956Y17650D01*
X39301Y18548D01*
X40199Y19892D01*
X40514Y21478D01*
X40199Y23064D01*
X39301Y24408D01*
X37956Y25306D01*
X36371Y25622D01*
D02*
G37*
G36*
X-65617Y9846D02*
X-67203Y9531D01*
X-68547Y8633D01*
X-69445Y7288D01*
X-69760Y5703D01*
X-69445Y4117D01*
X-68547Y2773D01*
X-67203Y1874D01*
X-65617Y1559D01*
X-64031Y1874D01*
X-62687Y2773D01*
X-61789Y4117D01*
X-61473Y5703D01*
X-61789Y7288D01*
X-62687Y8633D01*
X-64031Y9531D01*
X-65617Y9846D01*
D02*
G37*
G36*
X-80782Y-4748D02*
X-80929Y-4777D01*
X-81050Y-4753D01*
X-82198Y-4981D01*
X-82300Y-5049D01*
X-82448Y-5079D01*
X-82573Y-5163D01*
X-82693Y-5186D01*
X-83667Y-5837D01*
X-83735Y-5939D01*
X-83860Y-6023D01*
X-83944Y-6148D01*
X-84046Y-6216D01*
X-84696Y-7189D01*
X-84720Y-7310D01*
X-84804Y-7435D01*
X-84833Y-7583D01*
X-84902Y-7685D01*
X-85130Y-8833D01*
X-85106Y-8953D01*
X-85135Y-9101D01*
X-85106Y-9249D01*
X-85130Y-9369D01*
X-84902Y-10517D01*
X-84890Y-10535D01*
X-84893Y-10556D01*
X-78842Y-37000D01*
X-78776Y-37093D01*
X-78752Y-37212D01*
X-78668Y-37337D01*
X-78644Y-37457D01*
X-77994Y-38431D01*
X-77892Y-38499D01*
X-77808Y-38624D01*
X-77683Y-38708D01*
X-77615Y-38810D01*
X-76642Y-39460D01*
X-76521Y-39484D01*
X-76396Y-39568D01*
X-76248Y-39597D01*
X-76146Y-39666D01*
X-74998Y-39894D01*
X-74878Y-39870D01*
X-74730Y-39899D01*
X-74582Y-39870D01*
X-74462Y-39894D01*
X-73314Y-39666D01*
X-73211Y-39597D01*
X-73064Y-39568D01*
X-72939Y-39484D01*
X-72818Y-39460D01*
X-71845Y-38810D01*
X-71777Y-38708D01*
X-71651Y-38624D01*
X-71568Y-38499D01*
X-71466Y-38431D01*
X-70815Y-37457D01*
X-70791Y-37337D01*
X-70708Y-37212D01*
X-70678Y-37064D01*
X-70610Y-36962D01*
X-70382Y-35814D01*
X-70406Y-35693D01*
X-70376Y-35546D01*
X-70406Y-35398D01*
X-70382Y-35277D01*
X-70610Y-34129D01*
X-70622Y-34112D01*
X-70618Y-34091D01*
X-76670Y-7646D01*
X-76736Y-7554D01*
X-76759Y-7435D01*
X-76843Y-7310D01*
X-76867Y-7189D01*
X-77517Y-6216D01*
X-77620Y-6148D01*
X-77703Y-6023D01*
X-77828Y-5939D01*
X-77897Y-5837D01*
X-78870Y-5186D01*
X-78990Y-5163D01*
X-79116Y-5079D01*
X-79263Y-5049D01*
X-79366Y-4981D01*
X-80513Y-4753D01*
X-80634Y-4777D01*
X-80782Y-4748D01*
D02*
G37*
G36*
X-33629Y-1097D02*
X-35215Y-1412D01*
X-36559Y-2310D01*
X-37457Y-3655D01*
X-37772Y-5240D01*
X-37457Y-6826D01*
X-36559Y-8170D01*
X-35215Y-9069D01*
X-33629Y-9384D01*
X-32043Y-9069D01*
X-30699Y-8170D01*
X-29801Y-6826D01*
X-29485Y-5240D01*
X-29801Y-3655D01*
X-30699Y-2310D01*
X-32043Y-1412D01*
X-33629Y-1097D01*
D02*
G37*
G36*
X11946Y21639D02*
X10280Y21308D01*
X8868Y20364D01*
X7924Y18952D01*
X7593Y17286D01*
X7924Y15620D01*
X8868Y14207D01*
X10280Y13263D01*
X11946Y12932D01*
X12633Y12246D01*
X12602Y12089D01*
X12933Y10423D01*
X13877Y9011D01*
X15289Y8067D01*
X16788Y7769D01*
X17218Y7529D01*
X17900Y6847D01*
X17887Y6786D01*
X18219Y5120D01*
X19163Y3707D01*
X20575Y2763D01*
X21790Y2522D01*
X22936Y1777D01*
X23268Y111D01*
X24212Y-1302D01*
X25624Y-2245D01*
X27290Y-2577D01*
X27538Y-2528D01*
X28436Y-3426D01*
X28387Y-3670D01*
X28719Y-5336D01*
X29379Y-6323D01*
X29011Y-7569D01*
X28897Y-7714D01*
X28312Y-7830D01*
X26899Y-8774D01*
X25955Y-10187D01*
X25624Y-11853D01*
X25688Y-12176D01*
X24608Y-13256D01*
X24527Y-13240D01*
X22861Y-13571D01*
X21448Y-14515D01*
X20505Y-15928D01*
X20173Y-17594D01*
X20281Y-18138D01*
X19383Y-19036D01*
X19130Y-18986D01*
X17463Y-19317D01*
X16051Y-20261D01*
X15107Y-21673D01*
X14776Y-23339D01*
X14854Y-23734D01*
X13956Y-24632D01*
X13714Y-24584D01*
X12048Y-24915D01*
X10636Y-25859D01*
X9692Y-27271D01*
X9373Y-28873D01*
X9277Y-29165D01*
X9057Y-29300D01*
X8661Y-29302D01*
X7461Y-28826D01*
X7129Y-27160D01*
X6186Y-25747D01*
X4773Y-24804D01*
X3107Y-24472D01*
X1441Y-24804D01*
X29Y-25747D01*
X-915Y-27160D01*
X-1247Y-28826D01*
X-915Y-30492D01*
X29Y-31904D01*
X1441Y-32848D01*
X2995Y-33157D01*
X3379Y-33324D01*
X4112Y-34056D01*
X4057Y-34330D01*
X4388Y-35996D01*
X5332Y-37409D01*
X6745Y-38353D01*
X8411Y-38684D01*
X10077Y-38353D01*
X11489Y-37409D01*
X12433Y-35996D01*
X12764Y-34330D01*
X12733Y-34173D01*
X13449Y-33456D01*
X13847Y-33265D01*
X15380Y-32960D01*
X16793Y-32016D01*
X17737Y-30603D01*
X18068Y-28937D01*
X17989Y-28543D01*
X18887Y-27645D01*
X19130Y-27693D01*
X20796Y-27362D01*
X22208Y-26418D01*
X23152Y-25005D01*
X23483Y-23339D01*
X23375Y-22795D01*
X24273Y-21897D01*
X24527Y-21947D01*
X26193Y-21616D01*
X27605Y-20672D01*
X28549Y-19260D01*
X28880Y-17594D01*
X28816Y-17270D01*
X29896Y-16190D01*
X29978Y-16206D01*
X31644Y-15875D01*
X33056Y-14931D01*
X34000Y-13519D01*
X34331Y-11853D01*
X34000Y-10187D01*
X33340Y-9199D01*
X33707Y-7953D01*
X33822Y-7808D01*
X34407Y-7692D01*
X35819Y-6748D01*
X36763Y-5336D01*
X37095Y-3670D01*
X36763Y-2004D01*
X35819Y-591D01*
X34407Y353D01*
X32741Y684D01*
X32493Y635D01*
X31595Y1533D01*
X31644Y1777D01*
X31312Y3443D01*
X30369Y4855D01*
X28956Y5799D01*
X27741Y6041D01*
X26595Y6786D01*
X26263Y8452D01*
X25319Y9864D01*
X23907Y10808D01*
X22408Y11106D01*
X21979Y11346D01*
X21297Y12028D01*
X21309Y12089D01*
X20978Y13755D01*
X20034Y15168D01*
X18621Y16112D01*
X16955Y16443D01*
X16269Y17129D01*
X16300Y17286D01*
X15969Y18952D01*
X15025Y20364D01*
X13613Y21308D01*
X11946Y21639D01*
D02*
G37*
G36*
X-53778Y-7545D02*
X-55364Y-7860D01*
X-56708Y-8758D01*
X-57607Y-10103D01*
X-57922Y-11688D01*
X-57607Y-13274D01*
X-56708Y-14618D01*
X-55364Y-15517D01*
X-53778Y-15832D01*
X-52193Y-15517D01*
X-50848Y-14618D01*
X-49950Y-13274D01*
X-49635Y-11688D01*
X-49950Y-10103D01*
X-50848Y-8758D01*
X-52193Y-7860D01*
X-53778Y-7545D01*
D02*
G37*
G36*
X67977Y-34211D02*
X66391Y-34526D01*
X65047Y-35424D01*
X64149Y-36769D01*
X63833Y-38354D01*
X64149Y-39940D01*
X65047Y-41284D01*
X66391Y-42182D01*
X67977Y-42498D01*
X69563Y-42182D01*
X70907Y-41284D01*
X71805Y-39940D01*
X72120Y-38354D01*
X71805Y-36769D01*
X70907Y-35424D01*
X69563Y-34526D01*
X67977Y-34211D01*
D02*
G37*
G36*
X36248Y-45633D02*
X34662Y-45949D01*
X33318Y-46847D01*
X32420Y-48191D01*
X32104Y-49777D01*
X32353Y-51028D01*
X21821Y-61998D01*
X20741Y-61783D01*
X19155Y-62098D01*
X17811Y-62997D01*
X16913Y-64341D01*
X16597Y-65927D01*
X16913Y-67512D01*
X17811Y-68857D01*
X19155Y-69755D01*
X20741Y-70070D01*
X22327Y-69755D01*
X23671Y-68857D01*
X24569Y-67512D01*
X24885Y-65927D01*
X24636Y-64675D01*
X35168Y-53706D01*
X36248Y-53920D01*
X37834Y-53605D01*
X39178Y-52707D01*
X40076Y-51363D01*
X40392Y-49777D01*
X40076Y-48191D01*
X39178Y-46847D01*
X37834Y-45949D01*
X36248Y-45633D01*
D02*
G37*
G36*
X-12947Y-53916D02*
X-14613Y-54248D01*
X-16025Y-55191D01*
X-16969Y-56604D01*
X-17300Y-58270D01*
X-16969Y-59936D01*
X-16025Y-61348D01*
X-14613Y-62292D01*
X-12947Y-62624D01*
X-11281Y-62292D01*
X-9868Y-61348D01*
X-8924Y-59936D01*
X-8593Y-58270D01*
X-8924Y-56604D01*
X-9868Y-55191D01*
X-11281Y-54248D01*
X-12947Y-53916D01*
D02*
G37*
G36*
X33791Y-62548D02*
X32206Y-62863D01*
X30861Y-63762D01*
X29963Y-65106D01*
X29648Y-66692D01*
X29963Y-68277D01*
X30861Y-69622D01*
X32206Y-70520D01*
X33791Y-70835D01*
X35377Y-70520D01*
X36721Y-69622D01*
X37620Y-68277D01*
X37935Y-66692D01*
X37620Y-65106D01*
X36721Y-63762D01*
X35377Y-62863D01*
X33791Y-62548D01*
D02*
G37*
%LPD*%
G36*
X-2891Y46399D02*
X-1985Y45794D01*
X-1379Y44887D01*
X-1166Y43818D01*
X-1379Y42749D01*
X-1985Y41842D01*
X-2891Y41237D01*
X-3960Y41024D01*
X-23992Y41050D01*
X-24140Y41050D01*
X-24287Y41043D01*
X-27615Y40884D01*
X-27831Y40874D01*
X-28045Y40849D01*
X-29699Y40651D01*
X-29842Y40634D01*
X-29984Y40610D01*
X-31627Y40334D01*
X-31769Y40310D01*
X-31910Y40279D01*
X-33538Y39925D01*
X-33678Y39894D01*
X-33817Y39857D01*
X-35427Y39426D01*
X-35479Y39412D01*
X-35531Y39397D01*
X-49294Y35443D01*
X-49548Y35370D01*
X-50033Y35159D01*
X-50487Y34887D01*
X-50901Y34559D01*
X-51270Y34180D01*
X-51586Y33757D01*
X-51845Y33296D01*
X-52042Y32805D01*
X-52174Y32293D01*
X-52238Y31768D01*
X-52236Y31504D01*
X-52193Y26184D01*
X-52405Y25115D01*
X-53011Y24209D01*
X-53917Y23603D01*
X-54987Y23391D01*
X-56056Y23603D01*
X-56962Y24209D01*
X-57568Y25115D01*
X-57780Y26184D01*
X-57568Y27254D01*
X-56962Y28160D01*
X-51944Y35308D01*
X-50213Y36465D01*
X-36661Y40345D01*
X-35051Y40777D01*
X-33423Y41131D01*
X-3960Y46612D01*
X-2891Y46399D01*
D02*
G37*
G36*
X-103250Y-21000D02*
X-106734Y-23047D01*
X-106943Y-23170D01*
X-107316Y-23480D01*
X-107635Y-23845D01*
X-107890Y-24256D01*
X-107984Y-24480D01*
X-108714Y-26234D01*
Y-32134D01*
X-108943Y-33282D01*
X-109593Y-34255D01*
X-110566Y-34906D01*
X-111714Y-35134D01*
X-112862Y-34906D01*
X-113836Y-34255D01*
X-114486Y-33282D01*
X-114714Y-32134D01*
Y-26234D01*
X-115445Y-24480D01*
X-115537Y-24259D01*
X-115789Y-23852D01*
X-116102Y-23490D01*
X-116469Y-23182D01*
X-116880Y-22936D01*
X-117324Y-22759D01*
X-117792Y-22654D01*
X-118031Y-22640D01*
X-144750Y-21000D01*
Y21000D01*
X-103250D01*
Y-21000D01*
D02*
G37*
G36*
X-79634Y-6330D02*
X-78660Y-6980D01*
X-78010Y-7953D01*
X-71958Y-34398D01*
X-71730Y-35546D01*
X-71958Y-36694D01*
X-72609Y-37667D01*
X-73582Y-38317D01*
X-74730Y-38546D01*
X-75878Y-38317D01*
X-76851Y-37667D01*
X-77502Y-36694D01*
X-83553Y-10249D01*
X-83782Y-9101D01*
X-83553Y-7953D01*
X-82903Y-6980D01*
X-81930Y-6330D01*
X-80782Y-6101D01*
X-79634Y-6330D01*
D02*
G37*
D10*
X-124000Y0D02*
X-54987Y26184D01*
D57*
X76531Y-27107D02*
X83031D01*
X-111714Y-25634D02*
X-105214D01*
X-118214D02*
X-111714D01*
X70031Y-27107D02*
X76531D01*
X20741Y-65927D02*
X36248Y-49777D01*
X-61867Y73812D02*
X-31412Y47813D01*
X13714Y-28937D02*
X19130Y-23339D01*
X3107Y-28826D02*
X8411Y-34330D01*
X19130Y-23339D02*
X24527Y-17594D01*
X29978Y-11853D01*
X-65617Y5703D02*
X-24000Y0D01*
X22241Y6786D02*
X27290Y1777D01*
X11946Y17286D02*
X16955Y12089D01*
X27290Y1777D02*
X32741Y-3670D01*
X16955Y12089D02*
X22241Y6786D01*
X-24000Y0D02*
X11946Y17286D01*
X8411Y-34330D02*
X13714Y-28937D01*
X-24000Y0D02*
X3107Y-28826D01*
D60*
X53445Y52163D02*
D03*
X93126Y94000D02*
D03*
Y84000D02*
D03*
Y74000D02*
D03*
Y64000D02*
D03*
Y34000D02*
D03*
Y-26000D02*
D03*
Y-36000D02*
D03*
Y-46000D02*
D03*
Y-56000D02*
D03*
Y-66000D02*
D03*
Y-76000D02*
D03*
Y-86000D02*
D03*
X-150000Y-95000D02*
D03*
X-140000D02*
D03*
X-130000D02*
D03*
X-120000D02*
D03*
X-110000D02*
D03*
X-100000D02*
D03*
X-90000D02*
D03*
X-80000D02*
D03*
X-70000D02*
D03*
X-60000D02*
D03*
X-50000D02*
D03*
X-40000D02*
D03*
X-30000D02*
D03*
X-20000D02*
D03*
X-10000D02*
D03*
X0D02*
D03*
X10000D02*
D03*
X20000D02*
D03*
X30000D02*
D03*
X40000D02*
D03*
X50000D02*
D03*
X60000D02*
D03*
X70000D02*
D03*
X80000D02*
D03*
X-150000Y-85000D02*
D03*
Y-75000D02*
D03*
Y-65000D02*
D03*
Y-55000D02*
D03*
Y-45000D02*
D03*
Y-35000D02*
D03*
Y-25000D02*
D03*
Y-15000D02*
D03*
Y-5000D02*
D03*
Y5000D02*
D03*
Y15000D02*
D03*
Y25000D02*
D03*
Y35000D02*
D03*
Y45000D02*
D03*
Y55000D02*
D03*
Y65000D02*
D03*
Y75000D02*
D03*
Y85000D02*
D03*
Y95000D02*
D03*
X-140000D02*
D03*
X-130000D02*
D03*
X-120000D02*
D03*
X-110000D02*
D03*
X-100000D02*
D03*
X-90000D02*
D03*
X-80000D02*
D03*
X-70000D02*
D03*
X-60000D02*
D03*
X-50000D02*
D03*
X-40000D02*
D03*
X-30000D02*
D03*
X-20000D02*
D03*
X-10000D02*
D03*
X0D02*
D03*
X10000D02*
D03*
X20000D02*
D03*
X30000D02*
D03*
X40000D02*
D03*
X50000D02*
D03*
X60000D02*
D03*
X70000D02*
D03*
X80000D02*
D03*
X-53778Y-11688D02*
D03*
X72882Y55377D02*
D03*
X-33629Y-5240D02*
D03*
X36371Y21478D02*
D03*
X33791Y-66692D02*
D03*
X-65617Y5703D02*
D03*
X11599Y56916D02*
D03*
X36248Y-49777D02*
D03*
X61558Y36344D02*
D03*
X34232Y59652D02*
D03*
X-3960Y43818D02*
D03*
X22300Y38743D02*
D03*
X67977Y-38354D02*
D03*
X20741Y-65927D02*
D03*
X65747Y55036D02*
D03*
X-54987Y26184D02*
D03*
X51761Y33152D02*
D03*
X-48172Y31537D02*
D03*
X91007Y57384D02*
D03*
D61*
X76531Y-27107D02*
D03*
X70031D02*
D03*
X86100Y37815D02*
D03*
X13714Y-28937D02*
D03*
X-105214Y-25634D02*
D03*
X27290Y1777D02*
D03*
X8411Y-34330D02*
D03*
X3107Y-28826D02*
D03*
X83031Y-27107D02*
D03*
X-74730Y-35546D02*
D03*
X24527Y-17594D02*
D03*
X-61867Y73812D02*
D03*
X22241Y6786D02*
D03*
X-111714Y-25634D02*
D03*
X19130Y-23339D02*
D03*
X-12947Y-58270D02*
D03*
X-111714Y-32134D02*
D03*
X29978Y-11853D02*
D03*
X32741Y-3670D02*
D03*
X-118214Y-25634D02*
D03*
X-80782Y-9101D02*
D03*
X-31412Y47813D02*
D03*
X-5580Y53905D02*
D03*
X11946Y17286D02*
D03*
X-62637Y47605D02*
D03*
X16955Y12089D02*
D03*
X72582Y37362D02*
D03*
D62*
X-3968Y38004D02*
G03*
X-3796Y38006I8J5814D01*
G01*
X-23996Y38030D02*
G03*
X-24144Y38026I-4J-3020D01*
G01*
X-27472Y37868D02*
G03*
X-27686Y37850I144J-3017D01*
G01*
X-29341Y37652D02*
G03*
X-29483Y37632I358J-2999D01*
G01*
X-31126Y37355D02*
G03*
X-31268Y37328I501J-2978D01*
G01*
X-32896Y36974D02*
G03*
X-33036Y36940I642J-2951D01*
G01*
X-34645Y36509D02*
G03*
X-34783Y36468I782J-2917D01*
G01*
X-36370Y35961D02*
G03*
X-36506Y35914I920J-2877D01*
G01*
X-38067Y35332D02*
G03*
X-38074Y35329I1055J-2830D01*
G01*
X-3796Y38006D02*
X22300Y38743D01*
X-23996Y38030D02*
X-3968Y38004D01*
X-27472Y37868D02*
X-24144Y38026D01*
X-29341Y37652D02*
X-27686Y37850D01*
X-31126Y37355D02*
X-29483Y37632D01*
X-32896Y36974D02*
X-31268Y37328D01*
X-34645Y36509D02*
X-33036Y36940D01*
X-36370Y35961D02*
X-34783Y36468D01*
X-38067Y35332D02*
X-36506Y35914D01*
X-48172Y31537D02*
X-38074Y35329D01*
D63*
X-124000Y0D02*
D03*
X76000D02*
D03*
D64*
X-24000D02*
D03*
M02*
