G04*
G04 #@! TF.GenerationSoftware,Altium Limited,Altium Designer,24.8.2 (39)*
G04*
G04 Layer_Color=32896*
%FSLAX44Y44*%
%MOMM*%
G71*
G04*
G04 #@! TF.SameCoordinates,51F5D0A7-D834-435B-83A4-D3E02903F5C0*
G04*
G04*
G04 #@! TF.FilePolarity,Positive*
G04*
G01*
G75*
%ADD10C,0.2540*%
G36*
X-22730Y58420D02*
X-8760D01*
Y55880D01*
X-22730D01*
Y41910D01*
X-25270D01*
Y55880D01*
X-39240D01*
Y58420D01*
X-25270D01*
Y72390D01*
X-22730D01*
Y58420D01*
D02*
G37*
G36*
X-29319Y90910D02*
X-29283Y90860D01*
X-29245Y90811D01*
X-29207Y90768D01*
X-29172Y90730D01*
X-29156Y90715D01*
X-29144Y90702D01*
X-29131Y90692D01*
X-29123Y90684D01*
X-29118Y90679D01*
X-29116Y90677D01*
X-29052Y90623D01*
X-28986Y90575D01*
X-28923Y90534D01*
X-28862Y90496D01*
X-28834Y90481D01*
X-28811Y90468D01*
X-28788Y90456D01*
X-28768Y90446D01*
X-28753Y90438D01*
X-28742Y90433D01*
X-28735Y90428D01*
X-28732D01*
Y90174D01*
X-28778Y90192D01*
X-28826Y90214D01*
X-28872Y90237D01*
X-28915Y90258D01*
X-28953Y90278D01*
X-28981Y90293D01*
X-28991Y90301D01*
X-28999Y90303D01*
X-29004Y90308D01*
X-29007D01*
X-29062Y90341D01*
X-29111Y90374D01*
X-29154Y90405D01*
X-29190Y90433D01*
X-29220Y90456D01*
X-29240Y90473D01*
X-29253Y90484D01*
X-29258Y90489D01*
Y88820D01*
X-29520D01*
Y90964D01*
X-29350D01*
X-29319Y90910D01*
D02*
G37*
G36*
X-27897Y89483D02*
Y89419D01*
X-27891Y89363D01*
X-27886Y89318D01*
X-27881Y89282D01*
X-27876Y89252D01*
X-27871Y89231D01*
X-27869Y89221D01*
X-27866Y89216D01*
X-27853Y89186D01*
X-27838Y89160D01*
X-27820Y89137D01*
X-27803Y89120D01*
X-27785Y89104D01*
X-27772Y89094D01*
X-27762Y89087D01*
X-27759Y89084D01*
X-27729Y89069D01*
X-27699Y89056D01*
X-27668Y89049D01*
X-27640Y89041D01*
X-27615Y89038D01*
X-27594Y89036D01*
X-27577D01*
X-27526Y89041D01*
X-27480Y89051D01*
X-27442Y89064D01*
X-27409Y89082D01*
X-27383Y89097D01*
X-27366Y89112D01*
X-27356Y89122D01*
X-27350Y89125D01*
X-27335Y89143D01*
X-27323Y89165D01*
X-27302Y89214D01*
X-27287Y89270D01*
X-27274Y89325D01*
X-27267Y89376D01*
X-27264Y89399D01*
X-27262Y89419D01*
Y89437D01*
X-27259Y89450D01*
Y89458D01*
Y89460D01*
X-27005Y89424D01*
Y89366D01*
X-27010Y89313D01*
X-27015Y89262D01*
X-27025Y89216D01*
X-27036Y89173D01*
X-27046Y89132D01*
X-27061Y89097D01*
X-27074Y89066D01*
X-27086Y89038D01*
X-27102Y89013D01*
X-27112Y88993D01*
X-27124Y88975D01*
X-27135Y88962D01*
X-27142Y88952D01*
X-27145Y88947D01*
X-27147Y88944D01*
X-27178Y88917D01*
X-27208Y88891D01*
X-27244Y88871D01*
X-27277Y88853D01*
X-27312Y88838D01*
X-27348Y88822D01*
X-27419Y88805D01*
X-27450Y88797D01*
X-27480Y88792D01*
X-27508Y88790D01*
X-27531Y88787D01*
X-27549Y88784D01*
X-27577D01*
X-27645Y88787D01*
X-27709Y88797D01*
X-27764Y88810D01*
X-27813Y88822D01*
X-27853Y88838D01*
X-27869Y88843D01*
X-27881Y88848D01*
X-27891Y88853D01*
X-27902Y88858D01*
X-27904Y88861D01*
X-27907D01*
X-27955Y88891D01*
X-27998Y88927D01*
X-28034Y88965D01*
X-28062Y89000D01*
X-28085Y89033D01*
X-28100Y89061D01*
X-28105Y89069D01*
X-28110Y89076D01*
X-28112Y89082D01*
Y89084D01*
X-28125Y89112D01*
X-28135Y89145D01*
X-28151Y89211D01*
X-28163Y89280D01*
X-28171Y89348D01*
X-28173Y89379D01*
X-28176Y89407D01*
Y89435D01*
X-28179Y89458D01*
Y89475D01*
Y89488D01*
Y89498D01*
Y89501D01*
Y90956D01*
X-27897D01*
Y89483D01*
D02*
G37*
D10*
X7750Y82550D02*
X56010Y34290D01*
Y23320D02*
Y34290D01*
X-104010D02*
X-55750Y82550D01*
X-104010Y23320D02*
Y34290D01*
X-55750Y82550D02*
X7750D01*
X-104010Y-34290D02*
Y-23310D01*
X56010Y-34290D02*
Y-23310D01*
X-58292Y-63492D02*
X-51820Y-58048D01*
X-44500Y-53813D01*
X-36556Y-50916D01*
X-28228Y-49445D01*
X-19772D01*
X-11444Y-50916D01*
X-3499Y-53813D01*
X3820Y-58048D01*
X10292Y-63492D01*
M02*
