M48
;Layer_Color=9474304
;FILE_FORMAT=4:4
METRIC,LZ
;TYPE=PLATED
T01F00S00C0.2540
T02F00S00C0.3000
%
T01
X-0015Y-00095
X-0014
X-0013
X-0012
X-0011
X-001
X-0009
X-0008
X-0007
X-0006
X-0005
X-0004
X-0003
X-0002
X-0001
X0
X0001
X0002
X0003
X0004
X0005
X0006
X0007
X0008
X00093126Y-00086
Y-00076
Y-00066
Y-00056
Y-00046
Y-00036
Y-00026
X00067977Y-00038354
X00036248Y-00049777
X00033791Y-00066692
X00020741Y-00065927
X00036371Y00021478
X00051761Y00033152
X00061558Y00036344
X00065747Y00055036
X00072882Y00055377
X00091007Y00057384
X00093126Y00064
Y00074
Y00084
Y00094
X0008Y00095
X0007
X0006
X0005
X0004
X0003
X0002
X0001
X0
X-0001
X-0002
X-0003
X-0004
X-0005
X-0006
X-0007
X-0008
X-0009
X-001
X-0011
X-0012
X-0013
X-0014
X-0015
Y00085
Y00075
Y00065
Y00055
Y00045
Y00035
Y00025
Y00015
Y00005
Y-00005
Y-00015
Y-00025
Y-00035
Y-00045
Y-00055
Y-00065
Y-00075
Y-00085
X-00053778Y-00011688
X-00033629Y-0000524
X-00065617Y00005703
X-00054987Y00026184
X-00048172Y00031537
X-0000396Y00043818
X00011599Y00056916
X00034232Y00059652
X00053445Y00052163
X000223Y00038743
X00093126Y00034
T02
X-00111714Y-00032134
Y-00025634
X-00118214
X-00105214
X-0007473Y-00035546
X-00080782Y-00009101
X-00062637Y00047605
X-00061867Y00073812
X-00031412Y00047813
X-0000558Y00053905
X00011946Y00017286
X00016955Y00012089
X00022241Y00006786
X0002729Y00001777
X00032741Y-0000367
X00029978Y-00011853
X00024527Y-00017594
X0001913Y-00023339
X00013714Y-00028937
X00008411Y-0003433
X00003107Y-00028826
X-00012947Y-0005827
X00070031Y-00027107
X00076531
X00083031
X000861Y00037815
X00072582Y00037362
M30
